<?xml version="1.0" standalone="no"?>
<!DOCTYPE svg PUBLIC "-//W3C//DTD SVG 20010904//EN"
 "http://www.w3.org/TR/2001/REC-SVG-20010904/DTD/svg10.dtd">
<svg version="1.0" xmlns="http://www.w3.org/2000/svg"
 width="1254.000000pt" height="1254.000000pt" viewBox="0 0 1254.000000 1254.000000"
 preserveAspectRatio="xMidYMid meet">

<g transform="translate(0.000000,1254.000000) scale(0.100000,-0.100000)"
fill="#000000" stroke="none">
<path d="M6210 10840 c-692 -5 -825 -9 -880 -22 -255 -62 -454 -242 -521 -469
-18 -62 -22 -108 -26 -276 l-5 -203 -322 -1 c-176 0 -656 0 -1066 1 -766 1
-883 -4 -1036 -40 -385 -90 -710 -350 -869 -693 -45 -97 -92 -259 -105 -358
-6 -50 -10 -482 -10 -1120 0 -919 2 -1039 15 -1039 8 0 15 -5 15 -11 0 -6 -7
-9 -15 -5 -13 5 -15 -37 -15 -339 0 -319 1 -344 17 -348 17 -4 17 -5 1 -6 -16
-1 -18 -17 -18 -186 0 -169 1 -185 18 -185 16 -1 16 -1 0 -14 -17 -12 -18 -85
-18 -1268 0 -1364 -1 -1327 56 -1510 32 -101 93 -228 158 -325 48 -73 59 -83
71 -63 5 8 11 7 21 -1 20 -17 17 -28 -6 -22 -36 9 -21 -12 63 -95 69 -66 88
-80 106 -75 20 5 22 3 17 -14 -17 -53 284 -202 524 -259 71 -17 236 -19 3042
-24 2823 -5 2967 -4 2962 13 -7 21 12 23 23 2 13 -22 1584 -23 1719 0 468 77
859 422 990 873 56 193 54 138 54 1823 0 1196 -3 1558 -12 1567 -8 8 -8 12 -1
12 16 0 17 268 1 288 -10 12 -10 16 0 19 16 6 18 1563 1 1580 -8 8 -8 13 0 17
15 10 15 642 0 739 -37 247 -150 490 -308 661 -159 174 -340 294 -542 361
-181 61 -126 58 -1236 62 l-1023 4 0 188 c0 153 -4 202 -19 264 -60 232 -242
411 -486 477 -102 27 -233 29 -1335 20z m255 -50 c3 -5 1 -10 -4 -10 -6 0 -11
5 -11 10 0 6 2 10 4 10 3 0 8 -4 11 -10z m225 6 c0 -3 -4 -8 -10 -11 -5 -3
-10 -1 -10 4 0 6 5 11 10 11 6 0 10 -2 10 -4z m20 -66 c0 -5 -4 -10 -10 -10
-5 0 -10 5 -10 10 0 6 5 10 10 10 6 0 10 -4 10 -10z m340 -19 c0 -6 -4 -13
-10 -16 -5 -3 -10 1 -10 9 0 9 5 16 10 16 6 0 10 -4 10 -9z m-150 -11 c0 -5
-4 -10 -10 -10 -5 0 -10 5 -10 10 0 6 5 10 10 10 6 0 10 -4 10 -10z m444 -34
c-3 -9 -10 -16 -15 -16 -6 0 -5 9 1 21 13 24 24 20 14 -5z m-164 -1 c0 -8 -4
-15 -10 -15 -5 0 -10 7 -10 15 0 8 5 15 10 15 6 0 10 -7 10 -15z m-260 -24 c0
-6 -4 -13 -10 -16 -5 -3 -10 1 -10 9 0 9 5 16 10 16 6 0 10 -4 10 -9z m290 -6
c0 -8 -7 -15 -15 -15 -26 0 -18 20 13 29 1 1 2 -6 2 -14z m289 -46 c-24 -15
-30 -10 -11 9 9 10 19 14 21 9 2 -5 -3 -13 -10 -18z m185 -5 c9 -3 16 -12 16
-20 0 -12 -4 -12 -20 -2 -30 19 -27 34 4 22z m-314 -14 c0 -5 -4 -10 -10 -10
-5 0 -10 5 -10 10 0 6 5 10 10 10 6 0 10 -4 10 -10z m90 -31 c0 -10 -4 -19 -9
-19 -10 0 -21 36 -14 44 10 10 23 -5 23 -25z m-224 -17 c-8 -9 -19 -13 -22 -9
-10 9 16 38 28 31 6 -4 4 -13 -6 -22z m-296 -12 c0 -5 -4 -10 -10 -10 -5 0
-10 5 -10 10 0 6 5 10 10 10 6 0 10 -4 10 -10z m820 -30 c0 -5 -4 -10 -10 -10
-5 0 -10 5 -10 10 0 6 5 10 10 10 6 0 10 -4 10 -10z m-249 -31 c10 -20 9 -21
-12 -16 -13 3 -29 1 -36 -5 -14 -11 -17 0 -5 18 6 9 14 14 39 23 1 1 7 -9 14
-20z m209 7 c0 -3 -4 -8 -10 -11 -5 -3 -10 -1 -10 4 0 6 5 11 10 11 6 0 10 -2
10 -4z m-163 -22 c-3 -3 -12 -4 -19 -1 -8 3 -5 6 6 6 11 1 17 -2 13 -5z m-91
-43 c50 -23 112 -83 130 -127 10 -24 14 -81 14 -207 l0 -174 -947 -4 c-522 -2
-1058 -4 -1193 -4 l-245 0 2 172 c2 149 4 177 22 210 22 44 88 107 129 126 36
16 373 22 1297 25 712 1 752 1 791 -17z m-2306 -91 c0 -5 -4 -10 -10 -10 -5 0
-10 5 -10 10 0 6 5 10 10 10 6 0 10 -4 10 -10z m-4 -67 c20 -26 17 -35 -6 -21
-11 7 -20 18 -20 25 0 18 10 16 26 -4z m2734 -62 c0 -5 -7 -14 -15 -21 -16
-14 -18 -10 -9 14 6 17 24 22 24 7z m-2910 -21 c0 -5 -4 -10 -10 -10 -5 0 -10
5 -10 10 0 6 5 10 10 10 6 0 10 -4 10 -10z m-70 -80 c0 -11 -4 -20 -8 -20 -4
0 -8 9 -9 20 -1 11 2 20 8 20 5 0 9 -9 9 -20z m0 -50 c0 -5 -4 -10 -10 -10 -5
0 -10 5 -10 10 0 6 5 10 10 10 6 0 10 -4 10 -10z m4740 -159 c0 -6 -4 -13 -10
-16 -5 -3 -10 1 -10 9 0 9 5 16 10 16 6 0 10 -4 10 -9z m-4780 -11 c0 -5 -5
-10 -11 -10 -5 0 -7 5 -4 10 3 6 8 10 11 10 2 0 4 -4 4 -10z m4172 -22 c-7 -7
-12 -8 -12 -2 0 14 12 26 19 19 2 -3 -1 -11 -7 -17z m-222 -9 c0 -5 -7 -9 -15
-9 -8 0 -15 7 -15 15 0 9 6 12 15 9 8 -4 15 -10 15 -15z m-4737 -14 c1 -5 -6
-11 -15 -13 -11 -2 -18 3 -18 13 0 17 30 18 33 0z m-183 -5 c0 -5 -4 -10 -10
-10 -5 0 -10 5 -10 10 0 6 5 10 10 10 6 0 10 -4 10 -10z m-60 -10 c0 -5 -4
-10 -10 -10 -5 0 -10 5 -10 10 0 6 5 10 10 10 6 0 10 -4 10 -10z m73 -31 c-6
-6 -9 -18 -6 -25 7 -19 -11 -18 -27 1 -14 17 -14 17 15 33 23 12 34 7 18 -9z
m5907 1 c0 -5 -4 -10 -10 -10 -5 0 -10 5 -10 10 0 6 5 10 10 10 6 0 10 -4 10
-10z m-5585 -20 c-3 -5 -10 -10 -16 -10 -5 0 -9 5 -9 10 0 6 7 10 16 10 8 0
12 -4 9 -10z m32 -22 c-3 -8 -6 -5 -6 6 -1 11 2 17 5 13 3 -3 4 -12 1 -19z
m5468 -4 c116 -2 255 -8 310 -14 396 -42 761 -343 889 -736 57 -172 56 -146
56 -1559 0 -715 0 -1304 0 -1309 0 -5 7 -3 15 4 19 15 30 7 21 -16 -3 -9 -12
-14 -21 -10 -13 4 -15 -11 -15 -102 -1 -59 -2 -757 -4 -1552 -2 -1427 -3
-1446 -23 -1530 -79 -322 -282 -585 -558 -723 -131 -66 -214 -91 -360 -108
-44 -5 -467 -9 -940 -9 -618 -1 -855 -4 -841 -11 10 -6 35 -8 57 -5 24 4 39 2
39 -4 0 -5 7 -10 15 -10 8 0 15 -4 15 -9 0 -14 -18 -23 -24 -12 -6 9 -113 8
-136 -2 -8 -4 -22 -3 -29 2 -12 8 -11 13 10 30 l24 20 -2655 1 c-1460 1 -2730
0 -2821 0 -266 -1 -425 29 -605 116 -280 134 -486 388 -572 702 l-26 97 -3
1271 c-3 1235 -4 1272 -22 1267 -23 -6 -38 15 -21 30 10 9 14 9 17 0 3 -7 9
-13 14 -13 5 0 10 692 11 1628 l3 1627 28 100 c99 363 371 648 722 758 172 53
213 56 990 62 396 2 749 5 785 6 36 0 533 0 1105 -1 572 -1 1265 1 1540 4 275
3 1007 6 1628 6 816 0 1127 3 1127 11 0 7 8 9 23 4 12 -5 117 -9 232 -11z
m1415 -1344 c0 -5 -4 -10 -10 -10 -5 0 -10 5 -10 10 0 6 5 10 10 10 6 0 10 -4
10 -10z m-9623 -22 c-3 -8 -6 -5 -6 6 -1 11 2 17 5 13 3 -3 4 -12 1 -19z
m9554 -70 c-4 -12 -13 -24 -19 -26 -7 -2 -7 5 1 22 15 32 30 35 18 4z m54 -47
c-7 -23 -25 -29 -25 -8 0 14 21 39 28 33 2 -3 1 -14 -3 -25z m15 -51 c0 -5 -4
-10 -10 -10 -5 0 -10 5 -10 10 0 6 5 10 10 10 6 0 10 -4 10 -10z m-9630 -1560
c0 -5 -5 -10 -11 -10 -5 0 -7 5 -4 10 3 6 8 10 11 10 2 0 4 -4 4 -10z m-90
-151 c0 -18 -35 -5 -38 14 -3 16 -1 17 17 7 12 -6 21 -15 21 -21z m86 -116
c-11 -11 -17 4 -9 23 7 18 8 18 11 1 2 -10 1 -21 -2 -24z m-76 -309 c0 -8 -4
-12 -10 -9 -5 3 -10 10 -10 16 0 5 5 9 10 9 6 0 10 -7 10 -16z m-22 -196 c13
-34 10 -44 -8 -33 -6 4 -9 13 -6 21 3 8 1 14 -4 14 -6 0 -10 7 -10 15 0 26 15
16 28 -17z m104 17 c0 -5 -5 -11 -11 -13 -6 -2 -11 4 -11 13 0 9 5 15 11 13 6
-2 11 -8 11 -13z m9568 -15 c0 -5 -4 -10 -10 -10 -5 0 -10 5 -10 10 0 6 5 10
10 10 6 0 10 -4 10 -10z m-9685 -110 c-3 -5 -11 -10 -16 -10 -6 0 -7 5 -4 10
3 6 11 10 16 10 6 0 7 -4 4 -10z m80 -330 c3 -5 1 -10 -4 -10 -6 0 -11 5 -11
10 0 6 2 10 4 10 3 0 8 -4 11 -10z m9650 -519 c3 -5 1 -12 -5 -16 -5 -3 -10 1
-10 9 0 18 6 21 15 7z m-25 -145 c0 -3 -4 -8 -10 -11 -5 -3 -10 -1 -10 4 0 6
5 11 10 11 6 0 10 -2 10 -4z m40 -236 c0 -5 -4 -10 -10 -10 -5 0 -10 5 -10 10
0 6 5 10 10 10 6 0 10 -4 10 -10z m-26 -286 c10 -25 -1 -29 -14 -5 -6 12 -7
21 -1 21 5 0 12 -7 15 -16z m-9330 -1968 c-7 -17 -34 -23 -34 -6 0 9 32 31 38
26 1 -2 0 -11 -4 -20z m206 -72 c0 -2 -7 -4 -15 -4 -8 0 -15 4 -15 10 0 5 7 7
15 4 8 -4 15 -8 15 -10z m-88 -16 c-6 -6 -15 -8 -19 -4 -4 4 -1 11 7 16 19 12
27 3 12 -12z m5328 -138 c0 -5 -4 -10 -10 -10 -5 0 -10 5 -10 10 0 6 5 10 10
10 6 0 10 -4 10 -10z m1820 0 c0 -5 -5 -10 -11 -10 -5 0 -7 5 -4 10 3 6 8 10
11 10 2 0 4 -4 4 -10z m-6010 -10 c0 -5 -4 -10 -10 -10 -5 0 -10 5 -10 10 0 6
5 10 10 10 6 0 10 -4 10 -10z m270 1 c0 -9 -24 -21 -41 -21 -5 0 -9 7 -9 15 0
9 9 15 25 15 14 0 25 -4 25 -9z m3990 -1 c0 -5 -7 -10 -15 -10 -8 0 -15 -8
-15 -17 0 -13 -3 -14 -11 -6 -8 8 -8 15 2 27 16 17 39 21 39 6z m690 0 c0 -5
-4 -10 -10 -10 -5 0 -10 5 -10 10 0 6 5 10 10 10 6 0 10 -4 10 -10z m90 6 c0
-3 -4 -8 -10 -11 -5 -3 -10 -1 -10 4 0 6 5 11 10 11 6 0 10 -2 10 -4z m466
-33 c-10 -10 -19 5 -10 18 6 11 8 11 12 0 2 -7 1 -15 -2 -18z m-3924 -15 c-8
-8 -9 -4 -5 13 4 13 8 18 11 10 2 -7 -1 -18 -6 -23z m4158 22 c0 -5 -4 -10
-10 -10 -5 0 -10 5 -10 10 0 6 5 10 10 10 6 0 10 -4 10 -10z m-3720 -21 c0 -5
-4 -9 -10 -9 -5 0 -10 7 -10 16 0 8 5 12 10 9 6 -3 10 -10 10 -16z m4135 1
c-3 -5 -11 -10 -16 -10 -6 0 -7 5 -4 10 3 6 11 10 16 10 6 0 7 -4 4 -10z
m-675 -9 c0 -5 -7 -14 -15 -21 -12 -10 -15 -10 -15 2 0 8 3 18 7 21 9 10 23 9
23 -2z m710 -1 c0 -5 -4 -10 -10 -10 -5 0 -10 5 -10 10 0 6 5 10 10 10 6 0 10
-4 10 -10z m110 1 c0 -6 -4 -13 -10 -16 -5 -3 -10 1 -10 9 0 9 5 16 10 16 6 0
10 -4 10 -9z m-5675 -11 c3 -6 -1 -7 -9 -4 -18 7 -21 14 -7 14 6 0 13 -4 16
-10z m575 -6 c0 -8 -5 -12 -10 -9 -6 4 -8 11 -5 16 9 14 15 11 15 -7z m3095 6
c3 -5 -1 -10 -9 -10 -8 0 -18 5 -21 10 -3 6 1 10 9 10 8 0 18 -4 21 -10z
m-3908 -22 c-3 -8 -6 -5 -6 6 -1 11 2 17 5 13 3 -3 4 -12 1 -19z m4213 18 c0
-3 -4 -8 -10 -11 -5 -3 -10 -1 -10 4 0 6 5 11 10 11 6 0 10 -2 10 -4z m760
-16 c0 -11 -7 -20 -15 -20 -13 0 -13 3 -3 20 7 11 14 20 15 20 2 0 3 -9 3 -20z
m1040 10 c0 -5 -4 -10 -10 -10 -5 0 -10 5 -10 10 0 6 5 10 10 10 6 0 10 -4 10
-10z m-1180 -9 c0 -16 -28 -20 -40 -5 -10 12 -8 14 14 14 14 0 26 -4 26 -9z
m-3420 -11 c0 -5 -4 -10 -10 -10 -5 0 -10 5 -10 10 0 6 5 10 10 10 6 0 10 -4
10 -10z m-1655 -20 c3 -5 -3 -10 -14 -10 -12 0 -21 5 -21 10 0 6 6 10 14 10 8
0 18 -4 21 -10z m1005 -20 c0 -5 -7 -10 -16 -10 -8 0 -12 5 -9 10 3 6 10 10
16 10 5 0 9 -4 9 -10z"/>
<path d="M7603 9612 c-844 -1 -1283 -5 -1283 -12 0 -13 -27 -13 -32 1 -2 7
-452 7 -1518 -1 -833 -6 -1516 -13 -1518 -15 -20 -19 59 -23 510 -27 277 -1
989 -2 1583 0 1920 5 3941 1 4325 -7 427 -10 463 -15 626 -96 211 -105 365
-273 461 -505 63 -150 62 -134 68 -1307 3 -587 6 -1136 6 -1220 -1 -131 1
-152 14 -147 8 4 15 2 15 -4 0 -5 -7 -26 -15 -45 -10 -24 -15 -69 -15 -129 0
-83 1 -90 15 -72 14 18 14 16 8 -16 -3 -19 -10 -43 -14 -52 -5 -9 -9 -25 -8
-35 0 -10 3 -13 6 -5 12 29 20 7 21 -58 2 -73 -14 -98 -20 -32 -2 20 -4 -10
-5 -68 -1 -58 3 -108 8 -111 15 -9 16 -102 1 -107 -17 -5 -17 -213 0 -230 10
-10 9 -17 -2 -35 -12 -19 -15 -176 -17 -1092 -2 -624 -7 -1109 -13 -1163 -18
-163 -91 -340 -198 -473 -172 -218 -408 -329 -695 -329 -86 0 -79 11 23 35 93
22 278 116 363 184 168 135 265 271 327 460 33 101 38 149 45 411 2 107 8 274
11 372 4 97 4 183 1 192 -5 14 -11 14 -54 1 -26 -8 -84 -15 -128 -15 -44 -1
-127 -5 -185 -9 -80 -7 -112 -6 -132 4 -15 7 -37 11 -48 8 -11 -3 -48 0 -82 7
-44 8 -63 8 -68 1 -4 -8 -339 -13 -1151 -16 -1156 -4 -2043 -12 -2619 -21
-173 -2 -416 -4 -539 -4 -219 2 -225 2 -255 25 -60 45 -153 41 -213 -9 -26
-22 -38 -24 -143 -25 -63 -1 -191 -5 -285 -7 -93 -3 -190 -4 -215 -3 -25 1
-52 2 -60 1 -207 -4 -584 -1 -597 6 -10 5 -43 12 -73 16 -30 4 -89 18 -130 31
-250 78 -353 98 -499 100 l-114 1 -34 94 c-115 323 -176 640 -213 1098 -18
227 -10 665 15 827 2 17 7 55 9 85 47 543 251 1318 473 1795 l27 60 23 -175
c12 -96 22 -178 22 -182 2 -21 21 -3 47 45 40 74 44 35 5 -49 -28 -60 -41
-124 -24 -124 3 0 22 18 41 40 19 23 36 39 38 37 2 -2 -9 -37 -26 -77 -28 -68
-30 -88 -14 -139 3 -10 12 -5 29 15 34 39 39 26 15 -35 -19 -50 -27 -131 -13
-131 4 0 25 17 46 38 36 34 39 35 32 12 -4 -14 -18 -46 -31 -72 -22 -44 -34
-138 -17 -138 4 0 17 9 29 21 l22 20 -5 -48 c-3 -26 -11 -86 -18 -133 -7 -47
-11 -87 -8 -89 2 -3 22 15 45 40 154 164 239 441 209 675 -22 160 -93 337
-191 469 -22 30 -38 55 -35 55 11 0 228 -164 273 -207 24 -23 31 -14 34 50 l3
62 23 -85 c22 -78 29 -90 85 -148 l62 -63 12 28 c7 15 12 50 13 76 0 27 4 46
9 43 9 -6 19 -57 30 -153 4 -38 13 -69 25 -82 21 -23 46 -28 46 -8 0 6 8 21
16 32 15 19 16 16 10 -35 -6 -50 -4 -59 23 -100 l30 -44 22 49 c19 42 23 47
30 30 4 -11 8 -32 8 -47 1 -15 16 -60 35 -101 18 -40 39 -91 46 -113 7 -21 15
-43 18 -48 11 -20 53 119 63 212 19 163 -19 326 -109 476 -117 196 -334 338
-596 391 l-109 22 69 16 c38 9 114 21 169 27 158 18 154 15 109 61 -46 47 -33
49 46 9 53 -27 69 -30 150 -30 51 0 90 4 90 10 0 5 -14 25 -30 43 -17 19 -30
37 -30 40 0 8 64 -29 105 -59 25 -19 45 -23 113 -25 45 -1 85 0 88 3 3 3 -4
21 -15 39 -12 19 -21 37 -21 41 0 4 26 -9 59 -28 38 -23 80 -38 122 -45 35 -5
81 -16 102 -24 55 -22 59 -19 36 23 -78 138 -203 248 -351 309 -96 38 -244 57
-358 43 -52 -6 -119 -18 -150 -26 -82 -24 -266 -117 -340 -173 -67 -50 -89
-58 -53 -18 32 35 133 170 133 177 0 4 38 47 84 96 47 49 83 90 82 92 -2 1
-23 -2 -47 -7 -71 -16 -66 0 11 35 48 23 96 56 148 105 42 39 79 75 80 80 2 5
-27 9 -65 9 l-68 0 65 33 c36 18 96 52 135 76 38 24 85 51 105 59 31 13 33 16
15 23 -11 4 -69 8 -130 8 -210 1 -353 -57 -501 -204 -119 -118 -204 -267 -242
-424 -9 -39 -19 -71 -22 -71 -3 0 -10 26 -17 59 -15 80 -82 228 -149 327 -136
202 -380 365 -611 410 -86 16 -243 19 -243 4 0 -5 6 -10 13 -10 19 0 288 -137
321 -163 l29 -24 -76 -1 c-41 -1 -90 -7 -108 -15 l-33 -13 35 -20 c19 -11 66
-39 104 -62 43 -25 98 -47 142 -57 40 -9 75 -20 78 -24 2 -5 -18 -11 -45 -14
-28 -3 -55 -9 -60 -12 -5 -3 12 -26 39 -49 35 -31 74 -53 130 -72 83 -30 107
-50 49 -42 -18 3 -43 2 -55 -1 -20 -6 -17 -11 34 -66 74 -81 193 -222 193
-230 0 -3 -24 12 -53 33 -106 80 -254 152 -383 188 -33 9 -115 18 -184 21
-113 5 -134 3 -221 -21 -123 -33 -158 -48 -244 -103 -79 -51 -165 -135 -213
-208 -38 -57 -40 -68 -9 -55 12 5 78 23 147 40 72 18 141 42 163 56 44 29 45
25 12 -24 -25 -36 -32 -62 -17 -62 4 0 47 5 97 11 74 9 103 18 162 51 40 22
73 36 73 32 0 -5 -19 -27 -42 -51 -23 -23 -39 -45 -36 -49 4 -3 60 -7 125 -7
110 -2 122 0 177 26 32 15 61 25 64 22 3 -3 -11 -20 -32 -37 -48 -39 -43 -42
104 -63 63 -9 139 -22 169 -29 l54 -12 -74 -13 c-162 -27 -369 -112 -489 -201
-128 -95 -245 -241 -310 -384 -81 -182 -106 -433 -59 -598 13 -45 29 -72 29
-49 0 7 27 69 60 136 33 68 63 137 66 154 9 42 20 39 28 -8 3 -22 10 -42 15
-45 5 -3 25 21 45 54 28 46 39 75 42 118 7 74 13 102 22 102 4 0 8 -9 9 -21 3
-33 24 -89 34 -89 4 0 26 22 48 50 32 41 41 61 46 107 8 73 25 152 34 157 4 3
7 -19 7 -47 0 -29 4 -69 8 -91 l7 -39 40 39 c22 22 44 55 50 76 10 37 29 52
29 23 0 -8 4 -15 9 -15 26 0 71 58 111 144 25 52 48 95 52 96 3 0 4 -27 1 -60
-3 -33 -2 -60 3 -60 4 0 19 11 33 24 40 37 252 196 262 196 5 0 -11 -39 -35
-87 -24 -49 -78 -165 -119 -259 -323 -729 -499 -1389 -556 -2089 -42 -510 -41
-882 4 -1328 8 -81 15 -152 15 -157 0 -6 -29 21 -65 59 -53 56 -199 171 -218
171 -6 0 25 -118 46 -176 8 -22 29 -68 47 -103 17 -35 30 -64 28 -66 -2 -1
-37 2 -78 7 -87 11 -298 3 -385 -15 l-60 -12 2 -390 c2 -409 7 -509 25 -585
17 -71 89 -230 104 -230 7 0 17 -12 20 -27 16 -63 123 -185 238 -270 l58 -43
28 20 c34 24 44 25 60 5 10 -12 8 -16 -14 -25 -14 -5 -26 -12 -26 -15 0 -8 77
-44 163 -76 90 -33 190 -55 303 -65 41 -4 74 -11 74 -17 0 -6 -71 -8 -202 -4
-160 4 -220 10 -282 26 -349 92 -608 373 -672 729 -13 77 -15 395 -15 2897 0
2520 1 2818 16 2892 32 165 99 307 201 426 136 160 292 252 554 328 40 12 42
14 18 17 -15 2 -58 -6 -95 -17 -38 -11 -104 -31 -148 -45 -53 -16 -82 -20 -87
-13 -11 18 -170 -97 -247 -179 -125 -131 -203 -271 -253 -454 l-23 -85 0
-1560 c0 -1480 1 -1560 17 -1559 21 2 22 -3 3 -36 -18 -32 -21 -240 -4 -240 8
0 7 -6 -2 -17 -12 -13 -15 -190 -18 -1035 -2 -710 0 -1023 7 -1030 8 -8 8 -17
0 -32 -7 -13 -9 -61 -5 -141 19 -377 220 -682 558 -848 126 -62 231 -86 402
-94 125 -6 137 -5 131 10 -8 23 12 22 25 0 9 -17 191 -18 3573 -21 2561 -2
3590 0 3658 8 190 23 304 62 449 158 198 131 342 335 409 580 l26 97 3 2845
c3 1876 1 2871 -6 2920 -52 387 -332 714 -707 826 -79 23 -116 27 -319 35
-126 6 -396 8 -600 7 -203 -2 -947 -4 -1652 -6z m-1173 -32 c0 -12 -24 -12
-60 0 -21 7 -19 8 18 9 23 1 42 -3 42 -9z m-4160 -939 c0 -5 -9 -11 -20 -14
-23 -6 -25 -2 -7 17 12 14 27 12 27 -3z m10 -991 c0 -5 -7 -7 -15 -4 -8 4 -15
8 -15 10 0 2 7 4 15 4 8 0 15 -4 15 -10z m595 -1310 c3 -5 2 -10 -4 -10 -5 0
-13 5 -16 10 -3 6 -2 10 4 10 5 0 13 -4 16 -10z m-65 -150 c0 -5 -4 -10 -10
-10 -5 0 -10 5 -10 10 0 6 5 10 10 10 6 0 10 -4 10 -10z m-1113 -742 c-3 -7
-5 -2 -5 12 0 14 2 19 5 13 2 -7 2 -19 0 -25z m1015 -270 c-7 -7 -12 -8 -12
-2 0 14 12 26 19 19 2 -3 -1 -11 -7 -17z m-62 -12 c0 -3 -4 -8 -10 -11 -5 -3
-10 -1 -10 4 0 6 5 11 10 11 6 0 10 -2 10 -4z m166 -213 c-10 -10 -19 5 -10
18 6 11 8 11 12 0 2 -7 1 -15 -2 -18z m-156 -123 c0 -5 -4 -10 -10 -10 -5 0
-10 5 -10 10 0 6 5 10 10 10 6 0 10 -4 10 -10z m80 -531 c-7 -11 -14 -18 -17
-15 -8 8 5 36 17 36 7 0 7 -6 0 -21z m110 -69 c0 -5 -4 -10 -10 -10 -5 0 -10
5 -10 10 0 6 5 10 10 10 6 0 10 -4 10 -10z m-60 -74 c0 -11 -19 -15 -25 -6 -3
5 1 10 9 10 9 0 16 -2 16 -4z m2598 -359 c31 -29 28 -53 -16 -141 -21 -42 -37
-78 -35 -79 2 -2 45 2 96 9 50 7 133 16 183 20 91 7 92 6 109 -19 20 -31 13
-61 -20 -83 -15 -10 -86 -22 -197 -35 -95 -10 -190 -21 -210 -25 -36 -5 -38
-8 -113 -161 -162 -331 -247 -584 -215 -643 48 -90 329 161 532 475 36 55 89
126 118 158 54 59 140 117 174 117 10 0 36 16 57 34 70 64 193 73 269 21 76
-53 102 -187 61 -308 -23 -66 -19 -69 54 -31 52 28 205 150 205 163 0 19 104
192 120 201 45 24 132 -2 152 -45 10 -23 5 -37 -49 -143 -147 -281 -221 -493
-182 -517 29 -19 162 119 278 290 37 55 108 174 156 263 58 107 96 168 111
174 49 23 144 -24 144 -70 0 -10 -23 -66 -51 -123 -132 -269 -200 -489 -159
-514 14 -9 86 44 146 107 110 115 288 352 314 418 27 68 109 233 123 247 28
27 112 15 146 -21 29 -31 31 -27 -86 -275 -24 -51 -42 -96 -39 -98 2 -2 21 28
42 69 48 91 185 234 261 272 73 36 132 35 175 -3 30 -27 33 -34 32 -88 0 -45
-7 -72 -33 -123 -46 -93 -56 -102 -110 -98 -37 2 -48 8 -60 30 -14 24 -14 33
1 87 8 33 13 62 10 65 -9 10 -74 -43 -145 -117 -114 -120 -254 -349 -332 -542
-39 -95 -42 -98 -90 -92 -30 4 -48 15 -71 41 l-31 36 13 64 c12 57 28 110 49
159 14 34 -10 16 -42 -31 -48 -71 -190 -209 -240 -233 -80 -39 -163 -14 -208
62 -16 27 -20 51 -19 111 l1 76 -26 -38 c-103 -152 -205 -240 -294 -255 -51
-9 -123 27 -152 75 -30 52 -26 171 8 269 15 40 32 80 38 88 24 28 0 23 -51
-11 -29 -19 -78 -42 -109 -51 -54 -17 -57 -20 -106 -99 -65 -107 -191 -234
-275 -276 -102 -52 -201 -51 -281 2 -44 30 -88 117 -91 181 0 26 -4 47 -7 46
-3 0 -31 -32 -61 -70 -76 -98 -209 -220 -277 -257 -64 -34 -134 -48 -184 -37
-17 4 -51 25 -75 47 -35 32 -45 50 -54 95 -27 130 37 348 205 696 26 54 46 99
44 101 -2 2 -65 -3 -139 -12 -158 -18 -212 -9 -239 40 -14 24 -14 28 3 47 13
15 31 21 60 21 23 0 115 9 206 20 91 11 171 20 178 20 6 0 12 4 12 10 0 24
138 234 165 252 36 23 89 17 123 -15z m4922 -3 c0 -8 -4 -12 -10 -9 -5 3 -10
13 -10 21 0 8 5 12 10 9 6 -3 10 -13 10 -21z m-8165 6 c3 -5 2 -10 -4 -10 -5
0 -13 5 -16 10 -3 6 -2 10 4 10 5 0 13 -4 16 -10z m300 -30 c-10 -11 -22 -17
-28 -13 -5 3 1 12 14 19 33 18 35 17 14 -6z m2345 -10 c0 -5 -4 -10 -10 -10
-5 0 -10 5 -10 10 0 6 5 10 10 10 6 0 10 -4 10 -10z m4375 -20 c3 -5 1 -10 -4
-10 -6 0 -11 5 -11 10 0 6 2 10 4 10 3 0 8 -4 11 -10z m-6525 -10 c0 -5 -5
-10 -11 -10 -5 0 -7 5 -4 10 3 6 8 10 11 10 2 0 4 -4 4 -10z m-730 -15 c0 -8
-4 -15 -10 -15 -5 0 -10 7 -10 15 0 8 5 15 10 15 6 0 10 -7 10 -15z m355 4
c11 -17 -1 -21 -15 -4 -8 9 -8 15 -2 15 6 0 14 -5 17 -11z m113 -128 c3 -8 -1
-12 -9 -9 -7 2 -15 10 -17 17 -3 8 1 12 9 9 7 -2 15 -10 17 -17z m6212 9 c0
-5 -4 -10 -10 -10 -5 0 -10 5 -10 10 0 6 5 10 10 10 6 0 10 -4 10 -10z m-110
-4 c0 -3 -4 -8 -10 -11 -5 -3 -10 -1 -10 4 0 6 5 11 10 11 6 0 10 -2 10 -4z
m2096 -84 c-18 -16 -18 -16 -6 6 6 13 14 21 18 18 3 -4 -2 -14 -12 -24z
m-6056 -26 c0 -3 -4 -8 -10 -11 -5 -3 -10 -1 -10 4 0 6 5 11 10 11 6 0 10 -2
10 -4z m-2190 -48 c0 -6 -7 -5 -15 2 -8 7 -15 17 -15 22 0 6 7 5 15 -2 8 -7
15 -17 15 -22z m279 -17 c8 -5 9 -11 3 -15 -5 -3 -15 1 -22 9 -14 16 -3 20 19
6z m-339 -31 c0 -5 -7 -10 -15 -10 -8 0 -15 5 -15 10 0 6 7 10 15 10 8 0 15
-4 15 -10z m8044 -11 c-3 -5 -10 -7 -15 -3 -5 3 -7 10 -3 15 3 5 10 7 15 3 5
-3 7 -10 3 -15z m-6836 -26 c27 -6 28 -12 5 -29 -15 -11 -21 -9 -40 8 -27 26
-30 43 -5 33 9 -4 27 -10 40 -12z m132 3 c0 -3 -4 -8 -10 -11 -5 -3 -10 -1
-10 4 0 6 5 11 10 11 6 0 10 -2 10 -4z m-1460 -46 c0 -5 -5 -10 -11 -10 -5 0
-7 5 -4 10 3 6 8 10 11 10 2 0 4 -4 4 -10z m30 6 c0 -3 -4 -8 -10 -11 -5 -3
-10 -1 -10 4 0 6 5 11 10 11 6 0 10 -2 10 -4z m1050 -30 c0 -2 3 -11 6 -20 9
-23 -9 -20 -24 4 -10 17 -10 20 3 20 8 0 15 -2 15 -4z m-210 -21 c0 -8 -4 -15
-10 -15 -5 0 -10 7 -10 15 0 8 5 15 10 15 6 0 10 -7 10 -15z m-780 -5 c0 -5
-4 -10 -10 -10 -5 0 -10 5 -10 10 0 6 5 10 10 10 6 0 10 -4 10 -10z m870 -5
c7 -9 10 -18 7 -22 -8 -7 -37 15 -37 28 0 14 16 11 30 -6z m200 -15 c0 -5 -4
-10 -10 -10 -5 0 -10 5 -10 10 0 6 5 10 10 10 6 0 10 -4 10 -10z m-1078 -22
c-7 -7 -12 -8 -12 -2 0 14 12 26 19 19 2 -3 -1 -11 -7 -17z m618 -8 c0 -5 7
-10 15 -10 8 0 15 -4 15 -10 0 -16 -16 -12 -41 10 -20 16 -21 19 -6 20 9 0 17
-4 17 -10z m5795 -85 c273 -14 743 -59 758 -74 5 -5 7 -17 5 -27 -3 -18 -29
-19 -558 -20 -607 -2 -600 -2 -600 54 0 17 10 37 23 49 35 34 40 34 372 18z
m-4159 -30 c21 -28 17 -63 -8 -88 l-23 -22 -550 1 -550 1 0 23 c0 18 7 26 30
31 43 11 430 47 640 59 393 23 441 22 461 -5z m-2136 -27 c-1 -18 -28 -53 -36
-46 -5 6 24 58 32 58 2 0 4 -6 4 -12z m265 3 c6 -10 -32 -51 -47 -51 -4 0 -8
7 -8 15 0 8 7 15 15 15 9 0 18 7 21 15 7 17 11 19 19 6z m-545 -41 c0 -5 -4
-10 -10 -10 -5 0 -10 5 -10 10 0 6 5 10 10 10 6 0 10 -4 10 -10z m490 -40 c0
-5 -4 -10 -10 -10 -5 0 -10 5 -10 10 0 6 5 10 10 10 6 0 10 -4 10 -10z m-483
-22 c-3 -8 -6 -5 -6 6 -1 11 2 17 5 13 3 -3 4 -12 1 -19z m253 12 c0 -5 -5
-10 -11 -10 -5 0 -7 5 -4 10 3 6 8 10 11 10 2 0 4 -4 4 -10z m318 -11 c12 -18
11 -20 -5 -17 -10 2 -19 11 -21 21 -5 23 10 21 26 -4z m-663 -39 c3 -5 1 -10
-4 -10 -6 0 -11 5 -11 10 0 6 2 10 4 10 3 0 8 -4 11 -10z m160 0 c3 -5 -1 -10
-9 -10 -9 0 -16 5 -16 10 0 6 4 10 9 10 6 0 13 -4 16 -10z m521 -11 c10 -17
-13 -36 -27 -22 -12 12 -4 33 11 33 5 0 12 -5 16 -11z m7834 -17 c0 -13 -12
-22 -22 -16 -10 6 -1 24 13 24 5 0 9 -4 9 -8z m20 -32 c0 -5 -2 -10 -4 -10 -3
0 -8 5 -11 10 -3 6 -1 10 4 10 6 0 11 -4 11 -10z m-8313 -26 c-9 -9 -28 6 -21
18 4 6 10 6 17 -1 6 -6 8 -13 4 -17z m73 6 c0 -19 -11 -26 -23 -14 -8 8 3 34
14 34 5 0 9 -9 9 -20z m55 10 c3 -5 -1 -10 -10 -10 -9 0 -13 5 -10 10 3 6 8
10 10 10 2 0 7 -4 10 -10z m734 -12 c0 -16 -58 -63 -66 -54 -7 7 46 66 59 66
4 0 8 -6 7 -12z m-1079 -8 c0 -5 -4 -10 -10 -10 -5 0 -10 5 -10 10 0 6 5 10
10 10 6 0 10 -4 10 -10z m140 -10 c0 -5 -4 -10 -10 -10 -5 0 -10 5 -10 10 0 6
5 10 10 10 6 0 10 -4 10 -10z m521 -53 c-18 -18 -23 -1 -9 29 13 28 13 28 16
5 2 -13 -1 -28 -7 -34z m7829 33 c0 -5 -4 -10 -10 -10 -5 0 -10 5 -10 10 0 6
5 10 10 10 6 0 10 -4 10 -10z m-7790 -14 c0 -3 -4 -8 -10 -11 -5 -3 -10 -1
-10 4 0 6 5 11 10 11 6 0 10 -2 10 -4z m5570 -6 c0 -5 -2 -10 -4 -10 -3 0 -8
5 -11 10 -3 6 -1 10 4 10 6 0 11 -4 11 -10z m-4970 -40 c0 -5 -4 -10 -10 -10
-5 0 -10 5 -10 10 0 6 5 10 10 10 6 0 10 -4 10 -10z m55 0 c3 -5 -1 -10 -9
-10 -9 0 -16 5 -16 10 0 6 4 10 9 10 6 0 13 -4 16 -10z m-772 -25 c1 -5 -6
-11 -15 -13 -11 -2 -18 3 -18 13 0 17 30 18 33 0z m-198 -16 c4 -13 2 -27 -7
-35 -12 -12 -14 -9 -14 21 0 39 11 46 21 14z m7882 -1 c-3 -8 -6 -5 -6 6 -1
11 2 17 5 13 3 -3 4 -12 1 -19z m-7637 2 c0 -5 -4 -10 -10 -10 -5 0 -10 5 -10
10 0 6 5 10 10 10 6 0 10 -4 10 -10z m7833 3 c-7 -2 -19 -2 -25 0 -7 3 -2 5
12 5 14 0 19 -2 13 -5z m-7993 -21 c0 -13 -12 -22 -22 -16 -10 6 -1 24 13 24
5 0 9 -4 9 -8z m970 -22 c0 -5 -2 -10 -4 -10 -3 0 -8 5 -11 10 -3 6 -1 10 4
10 6 0 11 -4 11 -10z m450 -10 c0 -5 -4 -10 -10 -10 -5 0 -10 5 -10 10 0 6 5
10 10 10 6 0 10 -4 10 -10z m-1656 -21 c-3 -5 -10 -7 -15 -3 -5 3 -7 10 -3 15
3 5 10 7 15 3 5 -3 7 -10 3 -15z m440 5 c25 -10 19 -26 -6 -19 -31 10 -47 25
-26 25 9 0 23 -3 32 -6z m401 -10 c14 -9 22 -20 19 -26 -3 -5 -13 -3 -23 6
-25 23 -32 9 -16 -31 19 -45 19 -53 -1 -53 -9 0 -14 7 -13 18 2 9 -1 27 -5 40
-7 21 0 62 10 62 3 0 16 -7 29 -16z m-652 -23 c15 -8 27 -18 27 -22 0 -13 -41
-32 -50 -22 -11 12 -22 66 -13 61 4 -2 20 -10 36 -17z m537 -7 c0 -8 -5 -12
-10 -9 -6 4 -8 11 -5 16 9 14 15 11 15 -7z m4885 -4 c-3 -5 -11 -10 -16 -10
-6 0 -7 5 -4 10 3 6 11 10 16 10 6 0 7 -4 4 -10z m-5485 -10 c0 -5 -7 -10 -15
-10 -8 0 -15 5 -15 10 0 6 7 10 15 10 8 0 15 -4 15 -10z m990 -11 c0 -5 -7 -9
-15 -9 -9 0 -12 6 -9 15 6 15 24 11 24 -6z m4667 -5 c-9 -9 -28 6 -21 18 4 6
10 6 17 -1 6 -6 8 -13 4 -17z m1243 16 c0 -5 -4 -10 -9 -10 -6 0 -13 5 -16 10
-3 6 1 10 9 10 9 0 16 -4 16 -10z m-5680 -15 c0 -8 -7 -15 -16 -15 -14 0 -14
3 -4 15 7 8 14 15 16 15 2 0 4 -7 4 -15z m3710 5 c0 -5 -7 -10 -16 -10 -8 0
-12 5 -9 10 3 6 10 10 16 10 5 0 9 -4 9 -10z m-4774 -20 l28 -11 -28 -14 c-35
-19 -33 -19 -38 10 -6 28 -1 30 38 15z m69 -4 c-11 -8 -23 -12 -28 -9 -13 8 3
23 26 23 20 0 20 0 2 -14z m236 -19 c-13 -13 -26 -3 -16 12 3 6 11 8 17 5 6
-4 6 -10 -1 -17z m4530 -10 c-16 -16 -26 0 -10 19 9 11 15 12 17 4 2 -6 -1
-17 -7 -23z m349 13 c0 -5 -2 -10 -4 -10 -3 0 -8 5 -11 10 -3 6 -1 10 4 10 6
0 11 -4 11 -10z m215 0 c3 -5 1 -10 -4 -10 -6 0 -11 5 -11 10 0 6 2 10 4 10 3
0 8 -4 11 -10z m225 2 c0 -13 -12 -22 -22 -16 -10 6 -1 24 13 24 5 0 9 -4 9
-8z m-5920 -12 c0 -5 -4 -10 -10 -10 -5 0 -10 5 -10 10 0 6 5 10 10 10 6 0 10
-4 10 -10z m5970 -6 c0 -8 -5 -12 -10 -9 -6 4 -8 11 -5 16 9 14 15 11 15 -7z
m2200 6 c0 -5 -7 -10 -15 -10 -8 0 -15 5 -15 10 0 6 7 10 15 10 8 0 15 -4 15
-10z m-7280 -15 c0 -8 -4 -15 -9 -15 -13 0 -22 16 -14 24 11 11 23 6 23 -9z
m5240 -5 c0 -5 -2 -10 -4 -10 -3 0 -8 5 -11 10 -3 6 -1 10 4 10 6 0 11 -4 11
-10z m-4780 -21 c0 -5 -7 -9 -15 -9 -8 0 -15 7 -15 15 0 9 6 12 15 9 8 -4 15
-10 15 -15z m260 11 c8 -5 12 -12 9 -15 -8 -8 -39 5 -39 16 0 11 11 11 30 -1z
m3755 -20 c-3 -5 -10 -10 -16 -10 -5 0 -9 5 -9 10 0 6 7 10 16 10 8 0 12 -4 9
-10z m225 -10 c0 -5 -4 -10 -10 -10 -5 0 -10 5 -10 10 0 6 5 10 10 10 6 0 10
-4 10 -10z m332 -32 c-15 -15 -26 -4 -18 18 5 13 9 15 18 6 9 -9 9 -15 0 -24z
m-5262 4 c-8 -3 -23 -11 -33 -20 -20 -17 -30 -12 -21 11 3 9 15 17 27 19 26 5
47 -4 27 -10z m555 8 c3 -5 -1 -10 -10 -10 -9 0 -13 5 -10 10 3 6 8 10 10 10
2 0 7 -4 10 -10z m623 -1 c-2 -6 -8 -10 -13 -10 -5 0 -11 4 -13 10 -2 6 4 11
13 11 9 0 15 -5 13 -11z m3480 -1 c-6 -18 -28 -21 -28 -4 0 9 7 16 16 16 9 0
14 -5 12 -12z m102 2 c0 -5 -2 -10 -4 -10 -3 0 -8 5 -11 10 -3 6 -1 10 4 10 6
0 11 -4 11 -10z m-4340 -10 c0 -5 -7 -10 -15 -10 -8 0 -15 5 -15 10 0 6 7 10
15 10 8 0 15 -4 15 -10z m4400 0 c0 -5 -2 -10 -4 -10 -3 0 -8 5 -11 10 -3 6
-1 10 4 10 6 0 11 -4 11 -10z m-5040 -10 c0 -5 -4 -10 -10 -10 -5 0 -10 5 -10
10 0 6 5 10 10 10 6 0 10 -4 10 -10z m70 6 c0 -3 -4 -8 -10 -11 -5 -3 -10 -1
-10 4 0 6 5 11 10 11 6 0 10 -2 10 -4z m7484 -36 c-14 -14 -39 14 -29 31 5 8
12 6 23 -5 11 -11 13 -19 6 -26z m-1179 20 c3 -5 -1 -10 -10 -10 -9 0 -13 5
-10 10 3 6 8 10 10 10 2 0 7 -4 10 -10z m-1955 -20 c-19 -12 -30 -12 -30 -1 0
10 31 20 40 14 2 -2 -2 -8 -10 -13z m2090 16 c0 -3 -4 -8 -10 -11 -5 -3 -10
-1 -10 4 0 6 5 11 10 11 6 0 10 -2 10 -4z m-834 -21 c-21 -16 -32 -13 -21 4 3
6 14 11 23 11 15 -1 15 -2 -2 -15z m-5022 -14 c3 -4 -6 -19 -19 -31 -24 -22
-25 -22 -25 -4 0 31 31 56 44 35z m3726 -7 c0 -8 -5 -12 -10 -9 -6 4 -8 11 -5
16 9 14 15 11 15 -7z m1430 6 c0 -5 -4 -10 -10 -10 -5 0 -10 5 -10 10 0 6 5
10 10 10 6 0 10 -4 10 -10z m-1170 -20 c0 -5 -4 -10 -10 -10 -5 0 -10 5 -10
10 0 6 5 10 10 10 6 0 10 -4 10 -10z m620 0 c0 -5 -9 -10 -20 -10 -11 0 -20 5
-20 10 0 6 9 10 20 10 11 0 20 -4 20 -10z m-4343 -36 c-9 -9 -28 6 -21 18 4 6
10 6 17 -1 6 -6 8 -13 4 -17z m3383 16 c0 -5 -4 -10 -9 -10 -6 0 -13 5 -16 10
-3 6 1 10 9 10 9 0 16 -4 16 -10z m2230 0 c0 -5 -2 -10 -4 -10 -3 0 -8 5 -11
10 -3 6 -1 10 4 10 6 0 11 -4 11 -10z m-1630 -8 c0 -15 -22 -30 -36 -25 -11 4
-12 9 -3 19 12 15 39 19 39 6z m540 -8 c0 -8 -4 -12 -10 -9 -5 3 -10 10 -10
16 0 5 5 9 10 9 6 0 10 -7 10 -16z m-5030 -20 c0 -16 -16 -19 -25 -4 -8 13 4
32 16 25 5 -4 9 -13 9 -21z m247 0 c-9 -9 -28 6 -21 18 4 6 10 6 17 -1 6 -6 8
-13 4 -17z m3823 6 c0 -5 -4 -10 -9 -10 -5 0 -16 -3 -25 -6 -9 -3 -16 -1 -16
4 0 9 16 17 43 21 4 0 7 -3 7 -9z m170 2 c0 -10 -62 -33 -69 -26 -9 8 30 34
51 34 10 0 18 -4 18 -8z m170 -8 c0 -14 -3 -14 -15 -4 -8 7 -15 14 -15 16 0 2
7 4 15 4 8 0 15 -7 15 -16z m-4740 -3 c0 -11 -31 -24 -39 -16 -3 3 1 10 9 15
19 12 30 12 30 1z m955 -1 c3 -5 -3 -10 -15 -10 -12 0 -18 5 -15 10 3 6 10 10
15 10 5 0 12 -4 15 -10z m203 4 c32 -9 27 -26 -5 -18 -32 8 -55 24 -32 24 7 0
24 -3 37 -6z m3960 -6 c-6 -18 -28 -21 -28 -4 0 9 7 16 16 16 9 0 14 -5 12
-12z m52 2 c0 -5 -4 -10 -10 -10 -5 0 -10 5 -10 10 0 6 5 10 10 10 6 0 10 -4
10 -10z m-725 -10 c3 -5 2 -10 -4 -10 -5 0 -13 5 -16 10 -3 6 -2 10 4 10 5 0
13 -4 16 -10z m-2095 -10 c0 -5 -5 -10 -11 -10 -5 0 -7 5 -4 10 3 6 8 10 11
10 2 0 4 -4 4 -10z m2690 0 c0 -5 -5 -10 -11 -10 -5 0 -7 5 -4 10 3 6 8 10 11
10 2 0 4 -4 4 -10z m325 -10 c-3 -5 -11 -10 -16 -10 -6 0 -7 5 -4 10 3 6 11
10 16 10 6 0 7 -4 4 -10z m520 1 c3 -5 1 -12 -5 -16 -5 -3 -10 1 -10 9 0 18 6
21 15 7z m520 -11 c3 -5 -1 -10 -10 -10 -9 0 -13 5 -10 10 3 6 8 10 10 10 2 0
7 -4 10 -10z m-6014 -10 c5 0 9 -4 9 -10 0 -5 -13 -10 -30 -10 -29 0 -38 9
-23 24 4 3 13 4 21 1 7 -3 18 -5 23 -5z m2803 -9 c3 -5 -1 -11 -9 -15 -9 -3
-15 0 -15 9 0 16 16 20 24 6z m716 -1 c0 -5 -4 -10 -10 -10 -5 0 -10 5 -10 10
0 6 5 10 10 10 6 0 10 -4 10 -10z m1038 -11 c3 -11 1 -11 -6 -1 -5 7 -17 10
-28 6 -16 -5 -16 -4 -4 5 18 13 32 10 38 -10z m335 11 c7 0 4 -5 -6 -11 -18
-11 -37 -5 -37 13 0 5 7 7 16 4 9 -3 21 -6 27 -6z m57 0 c0 -5 -7 -10 -16 -10
-8 0 -12 5 -9 10 3 6 10 10 16 10 5 0 9 -4 9 -10z m480 0 c0 -5 -2 -10 -4 -10
-3 0 -8 5 -11 10 -3 6 -1 10 4 10 6 0 11 -4 11 -10z m1167 4 c-3 -3 -12 -4
-19 -1 -8 3 -5 6 6 6 11 1 17 -2 13 -5z m-6677 -14 c0 -12 -87 -12 -115 0 -14
6 1 9 48 9 38 1 67 -3 67 -9z m5825 0 c3 -5 1 -10 -4 -10 -6 0 -11 5 -11 10 0
6 2 10 4 10 3 0 8 -4 11 -10z m-75 -4 c0 -3 -4 -8 -10 -11 -5 -3 -10 -1 -10 4
0 6 5 11 10 11 6 0 10 -2 10 -4z m-2608 -28 c-7 -7 -12 -8 -12 -2 0 14 12 26
19 19 2 -3 -1 -11 -7 -17z m1214 -5 c-10 -10 -19 5 -10 18 6 11 8 11 12 0 2
-7 1 -15 -2 -18z m-186 10 c0 -5 -5 -15 -10 -23 -8 -12 -10 -11 -10 8 0 12 5
22 10 22 6 0 10 -3 10 -7z m-4376 -18 c3 -9 0 -15 -9 -15 -16 0 -27 14 -18 24
10 10 21 7 27 -9z"/>
<path d="M5970 3344 c-38 -44 -50 -73 -50 -126 0 -51 24 -103 60 -128 16 -11
31 -20 34 -20 3 0 17 38 32 85 30 97 30 171 -1 205 -25 28 -38 25 -75 -16z"/>
<path d="M5737 3131 c-113 -175 -153 -416 -74 -436 56 -14 161 68 245 192 60
88 60 89 15 108 -69 29 -132 111 -133 173 0 35 -12 26 -53 -37z"/>
<path d="M2530 9581 c-21 -4 -29 -9 -20 -12 18 -7 290 7 298 16 7 7 -234 4
-278 -4z"/>
<path d="M2887 9572 c7 -7 35 -15 63 -17 39 -3 52 0 59 13 8 14 12 15 22 5 19
-19 59 -16 59 3 0 13 -15 15 -108 12 -90 -2 -106 -5 -95 -16z"/>
<path d="M3115 9570 c-3 -5 3 -10 14 -10 12 0 21 5 21 10 0 6 -6 10 -14 10 -8
0 -18 -4 -21 -10z"/>
<path d="M2458 9563 c7 -3 16 -2 19 1 4 3 -2 6 -13 5 -11 0 -14 -3 -6 -6z"/>
<path d="M3198 9563 c7 -3 16 -2 19 1 4 3 -2 6 -13 5 -11 0 -14 -3 -6 -6z"/>
<path d="M2343 9540 c-48 -11 -143 -51 -143 -60 0 -11 32 -2 125 36 78 32 84
40 18 24z"/>
<path d="M5600 9116 c-65 -18 -118 -49 -174 -101 -27 -25 -52 -44 -55 -42 -3
1 -42 21 -86 42 -72 36 -88 40 -155 40 -49 0 -92 -7 -125 -19 -55 -21 -125
-64 -125 -77 0 -4 17 -2 38 3 67 20 200 14 267 -12 70 -27 135 -68 135 -84 0
-7 13 -24 28 -39 28 -27 56 -34 78 -19 16 10 34 48 34 70 0 10 16 37 35 59 72
85 202 143 318 143 71 0 67 11 -12 34 -64 19 -138 19 -201 2z"/>
<path d="M8165 9068 c-11 -6 -34 -24 -51 -40 l-31 -29 -44 20 c-55 25 -92 26
-145 2 -44 -20 -71 -47 -38 -38 84 24 144 14 198 -33 18 -17 39 -30 45 -30 6
0 17 15 25 34 20 48 87 94 148 102 33 5 45 10 36 15 -19 12 -119 10 -143 -3z"/>
<path d="M9915 8993 c-50 -7 -136 -33 -164 -51 -14 -9 -91 -64 -171 -122 -80
-58 -165 -120 -190 -137 l-45 -32 -120 13 c-66 7 -208 24 -315 36 l-195 23
-45 -28 -45 -29 40 -17 c22 -9 120 -49 217 -89 97 -39 184 -77 192 -83 14 -10
-8 -30 -144 -132 -94 -70 -168 -119 -178 -117 -9 2 -80 21 -157 43 -77 21
-149 39 -160 39 -11 0 -35 -13 -54 -28 l-33 -28 115 -77 c64 -43 119 -83 123
-89 4 -7 -2 -18 -14 -26 -23 -15 -29 -46 -12 -57 5 -3 27 -7 48 -8 36 -1 41
-5 77 -67 54 -91 54 -91 75 -80 37 20 50 42 50 83 0 58 11 117 21 117 14 0
325 156 391 196 57 35 60 35 74 18 17 -23 138 -232 193 -334 22 -41 43 -76 48
-77 5 -2 27 12 49 30 l39 34 -6 134 -7 134 44 41 c47 44 53 66 28 102 -17 24
-43 29 -62 10 -18 -18 -21 -8 -24 72 l-3 74 125 100 c158 126 293 259 314 310
39 94 12 116 -119 99z"/>
<path d="M6850 8314 c-25 -14 -57 -37 -71 -50 l-26 -25 -54 28 c-46 24 -66 28
-129 27 -63 -1 -83 -5 -122 -28 -54 -31 -74 -53 -37 -40 13 5 56 9 96 8 88 -1
174 -33 204 -75 35 -49 99 -48 99 2 0 25 56 86 100 109 42 21 124 38 163 33
15 -2 27 1 27 6 0 17 -62 31 -134 31 -58 0 -79 -5 -116 -26z"/>
<path d="M5281 8005 c-24 -7 -56 -26 -72 -41 l-28 -26 -47 23 c-65 31 -139 36
-189 13 l-40 -19 69 -3 c58 -2 77 -8 122 -37 30 -19 54 -41 54 -50 0 -8 8 -19
19 -24 14 -8 22 -6 35 8 9 9 16 22 16 27 0 15 60 69 96 87 17 9 55 19 85 23
l54 8 -40 12 c-52 16 -80 16 -134 -1z"/>
<path d="M10254 7801 c-18 -11 -35 -24 -38 -30 -4 -7 -21 -3 -47 11 -31 16
-52 19 -95 16 -71 -6 -95 -26 -31 -26 53 0 98 -21 136 -64 30 -34 46 -32 61 7
14 37 75 77 125 83 62 7 46 22 -23 22 -39 0 -67 -6 -88 -19z"/>
<path d="M5715 7681 c-22 -10 -50 -30 -63 -43 l-23 -25 -42 21 c-62 31 -140
28 -194 -7 -42 -27 -62 -58 -25 -38 10 5 41 13 69 17 61 8 128 -18 175 -68
l30 -32 19 23 c10 13 19 29 19 35 0 20 62 74 105 92 22 9 57 16 77 16 46 -1
50 13 7 22 -55 11 -113 6 -154 -13z"/>
<path d="M9865 7443 c-25 -6 -84 -49 -106 -76 -15 -19 -16 -19 -59 3 -62 31
-144 25 -202 -16 -50 -35 -63 -60 -20 -39 79 40 180 27 234 -30 18 -19 37 -35
44 -35 16 0 40 31 48 62 12 50 120 107 206 108 28 1 32 3 18 11 -20 11 -134
20 -163 12z"/>
<path d="M5908 7103 c7 -3 16 -2 19 1 4 3 -2 6 -13 5 -11 0 -14 -3 -6 -6z"/>
<path d="M8717 7076 c-86 -32 -182 -131 -126 -131 9 0 13 9 12 23 -2 14 1 21
7 17 6 -4 10 -3 9 2 -4 20 2 27 12 13 9 -13 10 -12 5 2 -7 22 38 49 119 73 33
9 65 19 70 20 6 2 -3 3 -20 3 -16 0 -56 -10 -88 -22z m-117 -116 c0 -5 -4 -10
-10 -10 -5 0 -10 5 -10 10 0 6 5 10 10 10 6 0 10 -4 10 -10z"/>
<path d="M8910 7070 c33 -23 50 -30 50 -22 0 5 -11 14 -25 20 -32 15 -45 15
-25 2z"/>
<path d="M5138 7041 c-50 -20 -85 -48 -74 -58 3 -4 19 5 34 19 46 42 146 59
237 39 27 -6 30 -10 28 -40 0 -19 2 -30 5 -24 4 6 17 13 29 17 17 5 29 -1 52
-25 17 -18 31 -37 31 -44 0 -6 7 -20 15 -31 14 -17 14 -14 0 21 -18 45 -64 94
-115 120 -52 28 -182 31 -242 6z"/>
<path d="M8980 7026 c0 -2 7 -7 16 -10 8 -3 12 -2 9 4 -6 10 -25 14 -25 6z"/>
<path d="M5020 6945 c-19 -31 -27 -36 -49 -31 -22 5 -24 5 -7 -5 13 -8 25 -8
41 -1 18 8 25 8 29 -1 3 -7 3 -2 0 11 -3 13 0 30 7 38 6 8 9 17 7 20 -3 3 -16
-11 -28 -31z"/>
<path d="M5080 6966 c0 -3 9 -10 20 -16 11 -6 20 -8 20 -6 0 3 -9 10 -20 16
-11 6 -20 8 -20 6z"/>
<path d="M9068 6943 c9 -4 10 -8 2 -18 -8 -10 -8 -15 1 -21 7 -4 18 1 26 11
12 18 14 18 33 -3 23 -24 37 -27 60 -12 11 8 8 9 -12 4 -21 -5 -30 -1 -43 20
-13 19 -25 26 -49 25 -17 0 -25 -3 -18 -6z"/>
<path d="M8366 6925 c-21 -7 -57 -33 -80 -57 l-42 -43 -208 -1 c-168 0 -209
-3 -216 -14 -6 -9 -5 -17 2 -21 7 -5 7 -8 0 -13 -13 -8 -5 -36 10 -36 5 0 7 4
3 9 -3 5 1 16 9 24 10 9 11 18 5 24 -7 7 22 12 82 16 157 12 203 9 220 -11 22
-26 40 -80 28 -87 -5 -3 -39 -5 -76 -4 -56 1 -194 -26 -181 -35 2 -2 51 4 110
13 91 13 127 13 245 3 138 -12 240 -16 232 -8 -2 3 -33 6 -69 8 -46 2 -70 8
-83 21 -12 12 -26 15 -45 11 -19 -4 -23 -3 -13 4 11 8 9 11 -9 17 -21 7 -21 8
-6 17 9 5 25 6 36 3 23 -7 27 10 4 19 -10 4 -13 13 -9 28 5 18 4 19 -4 8 -5
-8 -13 -11 -17 -7 -4 3 -1 15 7 24 11 15 10 15 -9 -1 -18 -16 -22 -16 -22 -4
0 16 60 68 78 68 6 0 12 5 14 11 2 6 37 14 78 18 71 8 72 8 20 9 -30 1 -72 -5
-94 -13z m-100 -121 c-5 -14 -4 -15 7 -5 11 9 17 8 26 -3 10 -12 4 -14 -39
-12 -52 3 -83 16 -37 16 15 0 27 5 27 10 0 6 5 10 11 10 6 0 8 -7 5 -16z m-79
0 c-3 -3 -12 -4 -19 -1 -8 3 -5 6 6 6 11 1 17 -2 13 -5z"/>
<path d="M4863 6923 c15 -2 37 -2 50 0 12 2 0 4 -28 4 -27 0 -38 -2 -22 -4z"/>
<path d="M9283 6923 c15 -2 37 -2 50 0 12 2 0 4 -28 4 -27 0 -38 -2 -22 -4z"/>
<path d="M9395 6900 c22 -11 39 -24 38 -29 -2 -6 4 -8 13 -4 8 3 25 -3 37 -14
24 -22 207 -53 310 -53 33 0 57 -4 57 -11 0 -5 -6 -7 -12 -4 -7 4 -4 -1 6 -9
21 -17 51 -22 42 -7 -3 5 4 11 17 15 18 5 19 8 8 15 -23 15 51 26 164 25 93
-1 96 0 40 7 -42 6 -106 4 -208 -8 -128 -14 -159 -15 -220 -4 -40 7 -97 16
-127 18 -30 3 -57 9 -60 13 -11 16 -90 60 -117 65 -23 4 -21 2 12 -15z"/>
<path d="M4744 6897 c-12 -7 -36 -25 -54 -40 l-33 -28 21 -22 c18 -17 24 -19
34 -8 11 10 10 15 -4 25 -22 16 -24 30 -3 22 8 -3 14 0 12 6 -1 6 13 22 32 35
35 24 32 31 -5 10z m-34 -89 c0 -13 -23 -5 -28 10 -2 7 2 10 12 6 9 -3 16 -11
16 -16z"/>
<path d="M5555 6895 l-30 -15 35 8 c45 9 116 9 155 0 l30 -7 -30 14 c-39 18
-122 18 -160 0z"/>
<path d="M9130 6880 c0 -5 5 -10 11 -10 5 0 7 5 4 10 -3 6 -8 10 -11 10 -2 0
-4 -4 -4 -10z"/>
<path d="M9368 6883 c7 -3 16 -2 19 1 4 3 -2 6 -13 5 -11 0 -14 -3 -6 -6z"/>
<path d="M5593 6869 c7 -5 27 -4 43 1 27 8 25 8 -14 7 -27 0 -38 -3 -29 -8z"/>
<path d="M5766 6857 c2 -7 14 -19 27 -26 21 -13 21 -12 -2 13 -27 29 -33 32
-25 13z"/>
<path d="M9485 6815 c26 -16 33 -25 22 -25 -26 0 -10 -20 16 -21 20 -1 20 -2
-3 -9 -14 -4 -18 -9 -10 -10 8 -1 -12 -7 -45 -14 -53 -10 -34 -11 150 -10 460
2 627 5 620 12 -10 11 -484 9 -477 -2 3 -5 -2 -6 -12 -3 -10 4 -38 7 -62 7
-28 0 -43 4 -39 10 4 6 -13 10 -44 10 -41 0 -49 3 -45 15 4 10 0 15 -10 15 -9
0 -19 7 -22 15 -4 8 -9 13 -14 10 -4 -2 -16 2 -26 10 -10 8 -23 14 -29 14 -5
0 8 -11 30 -24z"/>
<path d="M5912 6816 c-46 -4 -82 -10 -80 -11 2 -2 60 0 128 4 82 4 109 8 80
11 -25 3 -82 1 -128 -4z"/>
<path d="M4348 6804 c-32 -7 -75 -22 -95 -33 -35 -17 -123 -44 -183 -55 -14
-3 -2 -3 26 -1 29 2 103 23 165 47 106 40 121 43 209 43 52 -1 84 2 70 6 -41
11 -131 8 -192 -7z"/>
<path d="M4635 6810 c-3 -5 -1 -10 4 -10 6 0 11 5 11 10 0 6 -2 10 -4 10 -3 0
-8 -4 -11 -10z"/>
<path d="M10188 6813 c6 -2 18 -2 25 0 6 3 1 5 -13 5 -14 0 -19 -2 -12 -5z"/>
<path d="M7650 6800 c8 -5 26 -9 40 -9 23 0 23 1 5 9 -11 5 -29 9 -40 9 -17 1
-17 -1 -5 -9z"/>
<path d="M10238 6803 c7 -3 16 -2 19 1 4 3 -2 6 -13 5 -11 0 -14 -3 -6 -6z"/>
<path d="M6251 6784 c13 -16 57 -18 79 -4 8 5 11 10 5 11 -76 8 -95 7 -84 -7z"/>
<path d="M7948 6793 c6 -2 18 -2 25 0 6 3 1 5 -13 5 -14 0 -19 -2 -12 -5z"/>
<path d="M10278 6793 c7 -3 16 -2 19 1 4 3 -2 6 -13 5 -11 0 -14 -3 -6 -6z"/>
<path d="M9578 6783 c7 -3 16 -2 19 1 4 3 -2 6 -13 5 -11 0 -14 -3 -6 -6z"/>
<path d="M10328 6783 c7 -3 16 -2 19 1 4 3 -2 6 -13 5 -11 0 -14 -3 -6 -6z"/>
<path d="M8910 6770 c0 -5 5 -10 10 -10 6 0 10 5 10 10 0 6 -4 10 -10 10 -5 0
-10 -4 -10 -10z"/>
<path d="M8948 6759 c-9 -5 -38 -11 -64 -14 -75 -9 -265 -43 -299 -54 -48 -15
0 -12 85 5 140 28 295 45 365 40 59 -4 64 -3 30 5 -22 5 -54 13 -71 18 -17 5
-38 4 -46 0z"/>
<path d="M9808 6753 c6 -2 18 -2 25 0 6 3 1 5 -13 5 -14 0 -19 -2 -12 -5z"/>
<path d="M10460 6749 c0 -4 -24 -10 -52 -12 -34 -2 -23 -3 29 -4 45 0 88 4 95
8 10 6 8 9 -7 10 -11 1 -30 3 -42 4 -13 1 -23 -1 -23 -6z"/>
<path d="M7982 6740 c5 -16 46 -21 68 -9 11 6 8 8 -12 9 -14 0 -34 3 -44 7
-11 4 -15 2 -12 -7z"/>
<path d="M9265 6740 c-13 -5 -14 -9 -5 -9 8 0 24 4 35 9 13 5 14 9 5 9 -8 0
-24 -4 -35 -9z"/>
<path d="M5213 6733 c9 -2 23 -2 30 0 6 3 -1 5 -18 5 -16 0 -22 -2 -12 -5z"/>
<path d="M9115 6730 c-6 -10 113 -30 179 -30 38 0 55 4 51 11 -4 6 -26 9 -49
8 -22 -1 -48 1 -56 4 -25 9 -120 15 -125 7z"/>
<path d="M6230 6718 c0 -4 4 -8 10 -8 5 0 7 -7 4 -15 -4 -10 0 -15 10 -15 9 0
25 -6 37 -12 18 -11 23 -10 40 15 12 15 28 27 37 28 10 1 1 5 -18 10 -42 10
-120 9 -120 -3z m67 -4 c-3 -3 -12 -4 -19 -1 -8 3 -5 6 6 6 11 1 17 -2 13 -5z"/>
<path d="M7778 6723 c7 -3 16 -2 19 1 4 3 -2 6 -13 5 -11 0 -14 -3 -6 -6z"/>
<path d="M3970 6710 c-24 -8 -23 -8 8 -9 20 -1 31 3 27 9 -3 6 -7 10 -8 9 -1
-1 -13 -5 -27 -9z"/>
<path d="M5158 6712 c-87 -6 -50 -22 48 -22 67 0 95 3 92 11 -4 12 -59 16
-140 11z"/>
<path d="M5944 6709 c-3 -5 6 -9 20 -9 31 0 34 6 6 13 -11 3 -23 1 -26 -4z"/>
<path d="M7685 6710 l-20 -9 20 1 c11 0 31 4 45 8 l25 8 -25 0 c-14 0 -34 -3
-45 -8z"/>
<path d="M9368 6713 c7 -3 16 -2 19 1 4 3 -2 6 -13 5 -11 0 -14 -3 -6 -6z"/>
<path d="M3855 6700 c-4 -6 7 -10 27 -10 25 0 29 3 18 10 -19 13 -37 13 -45 0z"/>
<path d="M3688 6693 c12 -2 32 -2 45 0 12 2 2 4 -23 4 -25 0 -35 -2 -22 -4z"/>
<path d="M3793 6693 c9 -2 25 -2 35 0 9 3 1 5 -18 5 -19 0 -27 -2 -17 -5z"/>
<path d="M5043 6693 c9 -2 25 -2 35 0 9 3 1 5 -18 5 -19 0 -27 -2 -17 -5z"/>
<path d="M5889 6691 c11 -7 4 -12 -25 -20 -21 -6 -50 -11 -63 -11 -13 0 -22
-3 -18 -6 3 -3 62 0 131 7 87 9 121 16 110 22 -9 5 -34 7 -55 4 -21 -3 -40 -2
-42 2 -2 3 -2 -1 0 -9 2 -11 0 -11 -11 3 -7 9 -19 17 -27 17 -12 0 -12 -2 0
-9z"/>
<path d="M4945 6680 c-27 -7 -27 -8 -5 -8 14 0 39 4 55 8 27 7 27 8 5 8 -14 0
-38 -4 -55 -8z"/>
<path d="M5380 6680 c14 -4 34 -8 45 -8 16 0 15 2 -5 8 -14 4 -34 8 -45 8 -16
0 -15 -2 5 -8z"/>
<path d="M5548 6683 c7 -3 16 -2 19 1 4 3 -2 6 -13 5 -11 0 -14 -3 -6 -6z"/>
<path d="M5848 6683 c7 -3 16 -2 19 1 4 3 -2 6 -13 5 -11 0 -14 -3 -6 -6z"/>
<path d="M6488 6681 c11 -6 9 -9 -7 -14 -21 -5 -26 -43 -6 -50 5 -3 51 4 100
13 50 10 79 19 65 20 l-25 2 25 7 c20 6 13 10 -41 19 -78 14 -130 16 -111 3z"/>
<path d="M4348 6673 c6 -2 18 -2 25 0 6 3 1 5 -13 5 -14 0 -19 -2 -12 -5z"/>
<path d="M3855 6655 c70 -17 86 -18 64 -5 -8 5 -40 11 -70 14 l-54 6 60 -15z"/>
<path d="M4805 6660 l-40 -7 40 0 c22 -1 54 3 70 7 l30 8 -30 -1 c-16 0 -48
-3 -70 -7z"/>
<path d="M5480 6659 c14 -5 86 -12 160 -15 152 -5 165 1 20 10 -52 4 -120 8
-150 11 -44 3 -50 2 -30 -6z"/>
<path d="M7545 6660 c-3 -5 -28 -12 -55 -16 -28 -4 -50 -10 -50 -14 0 -4 26
-10 58 -13 31 -4 68 -10 82 -13 21 -6 23 -4 13 7 -7 7 -13 23 -13 36 0 23 -23
32 -35 13z"/>
<path d="M4162 6649 c5 -12 -8 -14 -71 -13 -61 1 -68 0 -36 -6 22 -4 153 -5
290 -1 138 4 207 9 155 10 -52 2 -142 4 -200 5 -58 2 -114 7 -124 11 -15 7
-18 5 -14 -6z"/>
<path d="M7718 6649 c-9 -5 -15 -15 -12 -22 3 -8 -7 -17 -23 -23 -26 -9 -23
-11 36 -18 42 -5 67 -4 74 3 8 8 0 11 -28 11 -30 0 -36 3 -27 12 13 13 16 48
5 48 -5 0 -16 -5 -25 -11z"/>
<path d="M7970 6653 c0 -5 43 -8 96 -9 55 -1 90 3 82 7 -16 11 -178 12 -178 2z"/>
<path d="M3965 6640 c3 -5 14 -10 23 -10 15 0 15 2 2 10 -20 13 -33 13 -25 0z"/>
<path d="M4683 6643 c15 -2 39 -2 55 0 15 2 2 4 -28 4 -30 0 -43 -2 -27 -4z"/>
<path d="M8180 6641 c8 -5 35 -11 60 -15 30 -4 36 -3 20 3 -41 13 -97 22 -80
12z"/>
<path d="M5939 6635 c-3 -2 -20 -6 -39 -8 -19 -3 -73 -14 -120 -25 -47 -11
-102 -23 -124 -27 -21 -3 -36 -9 -33 -12 3 -3 43 2 88 12 45 9 94 14 108 10
20 -4 22 -3 11 5 -11 7 -7 10 21 10 20 0 39 3 43 8 4 4 31 12 59 18 41 9 45
12 21 13 -17 0 -33 -1 -35 -4z"/>
<path d="M8049 6627 c7 -7 18 -7 33 0 20 9 20 10 -10 10 -22 0 -29 -4 -23 -10z"/>
<path d="M6310 6615 c10 -12 9 -15 -5 -15 -10 0 -16 -3 -13 -6 3 -3 21 -1 39
5 26 7 28 9 12 10 -13 1 -23 6 -23 11 0 6 -5 10 -11 10 -8 0 -8 -5 1 -15z"/>
<path d="M7275 6620 c-3 -5 1 -10 10 -10 9 0 13 5 10 10 -3 6 -8 10 -10 10 -2
0 -7 -4 -10 -10z"/>
<path d="M8118 6623 c7 -3 16 -2 19 1 4 3 -2 6 -13 5 -11 0 -14 -3 -6 -6z"/>
<path d="M9060 6615 c173 -22 206 -25 190 -16 -18 10 -205 31 -258 30 -20 -1
10 -7 68 -14z"/>
<path d="M6203 6613 c-7 -2 -13 -13 -13 -24 0 -10 -4 -19 -10 -19 -5 0 -10 5
-10 12 0 6 -2 9 -5 6 -3 -3 -1 -16 4 -29 8 -21 10 -22 16 -6 4 9 15 17 24 18
10 0 11 2 4 6 -18 7 -16 23 2 23 8 0 15 5 15 10 0 11 -7 12 -27 3z"/>
<path d="M7768 6613 c7 -3 16 -2 19 1 4 3 -2 6 -13 5 -11 0 -14 -3 -6 -6z"/>
<path d="M8908 6613 c7 -3 16 -2 19 1 4 3 -2 6 -13 5 -11 0 -14 -3 -6 -6z"/>
<path d="M6248 6603 c7 -3 16 -2 19 1 4 3 -2 6 -13 5 -11 0 -14 -3 -6 -6z"/>
<path d="M8850 6600 c0 -5 7 -7 15 -4 8 4 15 8 15 10 0 2 -7 4 -15 4 -8 0 -15
-4 -15 -10z"/>
<path d="M8415 6589 c58 -14 98 -18 205 -19 114 -1 134 0 127 6 -2 3 -65 6
-138 8 -74 2 -156 6 -184 9 -48 6 -49 6 -10 -4z"/>
<path d="M8808 6593 c6 -2 18 -2 25 0 6 3 1 5 -13 5 -14 0 -19 -2 -12 -5z"/>
<path d="M9288 6593 c7 -3 16 -2 19 1 4 3 -2 6 -13 5 -11 0 -14 -3 -6 -6z"/>
<path d="M9340 6592 c0 -5 20 -13 45 -16 41 -7 44 -9 30 -23 -9 -9 -13 -23
-10 -34 5 -14 1 -19 -12 -20 -16 0 -16 -1 2 -9 18 -7 16 -8 -10 -12 -22 -4
-17 -5 18 -7 27 0 80 4 119 11 71 11 71 11 48 30 -12 10 -36 17 -54 17 l-31
-1 30 -8 c37 -10 9 -12 -35 -3 l-33 6 34 12 c19 6 33 15 32 21 -1 5 16 8 39 6
22 -3 44 0 49 5 7 7 -31 12 -108 15 -65 3 -126 9 -135 13 -10 4 -18 3 -18 -3z
m143 -29 c-7 -2 -21 -2 -30 0 -10 3 -4 5 12 5 17 0 24 -2 18 -5z m-38 -73 c3
-5 1 -10 -4 -10 -6 0 -11 5 -11 10 0 6 2 10 4 10 3 0 8 -4 11 -10z"/>
<path d="M5060 6574 c-36 -7 -117 -20 -180 -29 -63 -9 -122 -20 -131 -25 -9
-5 -26 -6 -37 -3 -11 3 -28 1 -37 -4 -20 -11 40 -8 125 6 88 15 111 14 108 -6
-2 -12 4 -19 19 -21 27 -4 52 17 46 38 -6 22 113 46 136 27 11 -9 13 -9 8 0
-9 15 62 27 126 22 25 -2 43 -1 40 4 -7 11 -151 6 -223 -9z"/>
<path d="M6238 6583 c7 -3 16 -2 19 1 4 3 -2 6 -13 5 -11 0 -14 -3 -6 -6z"/>
<path d="M5300 6570 c0 -6 6 -10 13 -9 26 3 100 -1 95 -6 -2 -3 -24 -6 -47 -7
-70 -2 -41 -22 45 -30 43 -4 89 -9 101 -11 12 -2 20 0 17 4 -3 5 1 9 9 9 8 0
20 7 27 15 7 8 22 16 34 17 11 1 -24 5 -79 9 -55 4 -126 10 -157 14 -38 4 -58
2 -58 -5z m168 -27 c-10 -2 -26 -2 -35 0 -10 3 -2 5 17 5 19 0 27 -2 18 -5z"/>
<path d="M9775 6571 l40 -6 -55 -17 c-30 -9 -70 -20 -87 -23 -18 -4 -36 -11
-39 -17 -4 -6 1 -8 12 -5 11 3 55 16 99 28 44 13 82 27 83 31 2 5 7 6 11 3 5
-2 28 -1 52 4 36 7 27 9 -56 8 -62 0 -85 -2 -60 -6z"/>
<path d="M5734 6548 c10 -6 22 -6 26 -2 5 5 -3 10 -18 11 -22 1 -24 0 -8 -9z"/>
<path d="M8448 6553 c6 -2 18 -2 25 0 6 3 1 5 -13 5 -14 0 -19 -2 -12 -5z"/>
<path d="M8610 6540 c-12 -8 -12 -10 5 -10 11 0 27 5 35 10 12 8 12 10 -5 10
-11 0 -27 -5 -35 -10z"/>
<path d="M6160 6520 c0 -5 7 -7 15 -4 8 4 15 8 15 10 0 2 -7 4 -15 4 -8 0 -15
-4 -15 -10z"/>
<path d="M8968 6523 c7 -3 16 -2 19 1 4 3 -2 6 -13 5 -11 0 -14 -3 -6 -6z"/>
<path d="M5129 6513 c-1 -5 -1 -11 -1 -14 1 -4 -16 -9 -38 -12 -21 -3 -49 -12
-62 -21 -21 -15 -16 -16 95 -16 92 0 140 -5 218 -25 68 -17 106 -22 122 -16
18 7 14 9 -21 9 -23 0 -48 4 -55 9 -6 5 -25 10 -41 11 -16 1 -32 5 -35 8 -3 4
6 4 22 2 15 -3 27 -1 27 3 0 5 -5 9 -11 9 -6 0 -9 9 -6 19 4 15 0 19 -15 16
-11 -3 -27 -10 -34 -16 -12 -10 -12 -14 -2 -21 23 -15 -96 4 -120 19 -14 8
-21 21 -18 29 3 8 -1 14 -9 14 -8 0 -16 -3 -16 -7z"/>
<path d="M8728 6513 c7 -3 16 -2 19 1 4 3 -2 6 -13 5 -11 0 -14 -3 -6 -6z"/>
<path d="M9038 6513 c7 -3 16 -2 19 1 4 3 -2 6 -13 5 -11 0 -14 -3 -6 -6z"/>
<path d="M9368 6513 c7 -3 16 -2 19 1 4 3 -2 6 -13 5 -11 0 -14 -3 -6 -6z"/>
<path d="M4475 6500 c-81 -5 -89 -14 -12 -13 9 0 17 -3 17 -7 0 -10 109 -34
117 -27 3 4 -5 7 -18 7 -13 1 -37 7 -54 15 l-30 13 35 2 c19 1 53 5 75 9 l40
9 -35 -1 c-19 -1 -80 -4 -135 -7z"/>
<path d="M8770 6502 c-36 -12 12 -17 168 -16 219 2 211 2 192 14 -8 5 -19 10
-25 10 -5 0 -3 -5 5 -10 9 -6 -4 -7 -40 -3 -62 6 -284 10 -300 5z"/>
<path d="M7825 6490 c-3 -5 -1 -10 4 -10 6 0 11 5 11 10 0 6 -2 10 -4 10 -3 0
-8 -4 -11 -10z"/>
<path d="M8625 6482 c-11 -2 -31 -12 -45 -22 -34 -24 -106 -43 -139 -36 -14 3
-20 3 -13 0 6 -3 10 -10 6 -15 -3 -5 -4 -9 -2 -9 14 0 252 71 257 76 3 4 -3 4
-13 0 -11 -4 -22 -3 -25 2 -3 4 -15 6 -26 4z"/>
<path d="M8718 6483 c7 -3 16 -2 19 1 4 3 -2 6 -13 5 -11 0 -14 -3 -6 -6z"/>
<path d="M9150 6478 c0 -5 30 -7 68 -7 69 2 62 6 -20 11 -27 2 -48 0 -48 -4z"/>
<path d="M4828 6473 c7 -3 16 -2 19 1 4 3 -2 6 -13 5 -11 0 -14 -3 -6 -6z"/>
<path d="M6375 6472 c19 -14 15 -32 -7 -34 -26 -1 -25 -1 -87 -12 -31 -6 -40
-11 -30 -17 16 -10 -4 -12 -96 -10 -94 3 -117 9 -110 32 4 11 2 19 -4 19 -6 0
-11 -4 -11 -10 0 -5 -12 -10 -27 -11 l-28 -1 30 -12 c27 -10 20 -12 -70 -22
l-100 -12 155 5 c100 3 206 -1 300 -11 140 -14 193 -15 111 -1 -23 4 -43 10
-45 14 -12 19 41 51 85 51 17 0 37 6 44 14 12 12 10 15 -17 20 -42 8 -105 7
-93 -2z"/>
<path d="M4901 6451 c-8 -5 -75 -8 -150 -7 -111 2 -125 1 -76 -7 72 -10 288
-2 313 12 13 8 7 10 -28 11 -25 0 -51 -4 -59 -9z"/>
<path d="M5445 6440 c-16 -7 -17 -9 -3 -9 9 -1 20 4 23 9 7 11 7 11 -20 0z"/>
<path d="M6685 6440 c-3 -5 -1 -10 4 -10 6 0 11 5 11 10 0 6 -2 10 -4 10 -3 0
-8 -4 -11 -10z"/>
<path d="M7768 6433 c7 -3 16 -2 19 1 4 3 -2 6 -13 5 -11 0 -14 -3 -6 -6z"/>
<path d="M7898 6431 c19 -11 -36 -22 -91 -17 -32 3 -35 2 -12 -3 29 -7 28 -7
-15 -13 -25 -3 -81 -11 -125 -18 -44 -6 -87 -9 -97 -7 -9 3 -19 -2 -22 -9 -4
-10 1 -13 17 -9 12 3 63 10 112 16 50 6 115 15 145 20 75 13 73 13 180 6 52
-3 82 -3 65 -1 -100 15 -140 27 -120 35 16 6 13 8 -15 8 -23 1 -30 -2 -22 -8z"/>
<path d="M6588 6403 c7 -3 16 -2 19 1 4 3 -2 6 -13 5 -11 0 -14 -3 -6 -6z"/>
<path d="M8350 6398 c-30 -5 -102 -6 -160 -3 -81 4 -99 2 -80 -6 25 -11 286
-7 298 5 11 11 -3 12 -58 4z"/>
<path d="M5478 6393 c7 -3 16 -2 19 1 4 3 -2 6 -13 5 -11 0 -14 -3 -6 -6z"/>
<path d="M5550 6390 l-35 -7 43 -2 c23 0 42 4 42 9 0 6 -3 9 -7 9 -5 -1 -24
-5 -43 -9z"/>
<path d="M5618 6373 c7 -3 16 -2 19 1 4 3 -2 6 -13 5 -11 0 -14 -3 -6 -6z"/>
<path d="M5683 6373 c20 -2 54 -2 75 0 20 2 3 4 -38 4 -41 0 -58 -2 -37 -4z"/>
<path d="M6463 6363 c9 -2 23 -2 30 0 6 3 -1 5 -18 5 -16 0 -22 -2 -12 -5z"/>
<path d="M3796 6177 c-11 -8 -21 -27 -22 -43 -1 -16 -26 -141 -54 -279 -29
-137 -56 -268 -60 -290 -4 -22 -22 -105 -39 -185 -18 -80 -48 -217 -66 -305
-86 -409 -106 -503 -116 -538 -17 -66 -81 -371 -83 -397 l-1 -25 175 -3 c96
-1 184 0 196 2 18 5 22 15 27 83 3 43 13 105 21 138 8 33 20 85 26 115 l10 55
205 3 c162 2 206 0 209 -10 11 -36 48 -257 54 -316 l7 -67 198 -3 c159 -2 198
0 203 11 3 8 -4 47 -15 88 -19 71 -109 508 -302 1474 -50 248 -92 460 -95 473
-4 22 -5 22 -212 22 -114 0 -216 3 -227 6 -11 3 -29 -1 -39 -9z m233 -213 c12
-20 19 -39 16 -42 -10 -10 -45 32 -45 55 0 31 4 29 29 -13z m151 10 c0 -8 -4
-14 -9 -14 -11 0 -22 26 -14 34 9 9 23 -3 23 -20z m-240 -44 c0 -5 -4 -10 -10
-10 -5 0 -10 5 -10 10 0 6 5 10 10 10 6 0 10 -4 10 -10z m140 -20 c0 -5 -4
-10 -10 -10 -5 0 -10 5 -10 10 0 6 5 10 10 10 6 0 10 -4 10 -10z m-254 -96
c-3 -9 -6 -18 -6 -20 0 -2 -9 -4 -20 -4 -25 0 -26 16 -2 29 25 15 35 13 28 -5z
m291 -86 c-3 -8 -6 -5 -6 6 -1 11 2 17 5 13 3 -3 4 -12 1 -19z m-233 -109 c-3
-5 -10 -7 -15 -3 -5 3 -7 10 -3 15 3 5 10 7 15 3 5 -3 7 -10 3 -15z m450 5 c8
-22 -4 -40 -15 -23 -11 18 -11 39 0 39 5 0 12 -7 15 -16z m-259 -274 c24 -135
55 -303 68 -375 14 -71 23 -132 22 -135 -2 -3 -68 -5 -147 -5 -121 0 -143 2
-142 15 1 8 25 139 52 290 28 151 59 316 68 365 9 50 19 97 22 105 6 19 1 44
57 -260z m299 188 c-3 -5 -12 -1 -20 9 -20 27 -17 39 6 18 11 -10 17 -22 14
-27z m-94 -8 c0 -5 -4 -10 -10 -10 -5 0 -10 5 -10 10 0 6 5 10 10 10 6 0 10
-4 10 -10z m-8 -52 c-7 -7 -12 -8 -12 -2 0 14 12 26 19 19 2 -3 -1 -11 -7 -17z
m83 3 c3 -5 1 -12 -5 -16 -5 -3 -10 1 -10 9 0 18 6 21 15 7z m-425 -41 c0 -5
-4 -10 -10 -10 -5 0 -10 5 -10 10 0 6 5 10 10 10 6 0 10 -4 10 -10z m290 -50
c0 -5 -5 -10 -11 -10 -5 0 -7 5 -4 10 3 6 8 10 11 10 2 0 4 -4 4 -10z m130
-350 c0 -5 -4 -10 -10 -10 -5 0 -10 5 -10 10 0 6 5 10 10 10 6 0 10 -4 10 -10z
m130 -630 c0 -5 -2 -10 -4 -10 -3 0 -8 5 -11 10 -3 6 -1 10 4 10 6 0 11 -4 11
-10z"/>
<path d="M4899 6178 c-18 -7 -19 -13 -12 -55 7 -43 8 -789 2 -1678 l-2 -330
199 0 199 0 -1 40 c-4 125 -4 808 1 815 3 4 95 8 204 9 l200 1 3 -112 c2 -62
1 -252 -2 -423 -3 -179 -2 -315 4 -323 7 -9 54 -12 198 -10 l189 3 2 1033 2
1032 -40 0 c-22 1 -109 1 -193 2 -84 1 -156 -3 -160 -8 -4 -5 -5 -112 -2 -239
3 -126 4 -314 2 -417 l-3 -187 -104 -3 c-57 -2 -148 -2 -203 0 l-99 3 -1 374
c0 227 4 390 10 415 7 28 7 45 1 51 -12 12 -364 18 -394 7z m951 -88 c0 -5 -4
-10 -10 -10 -5 0 -10 5 -10 10 0 6 5 10 10 10 6 0 10 -4 10 -10z m90 -44 c0
-3 -4 -8 -10 -11 -5 -3 -10 -1 -10 4 0 6 5 11 10 11 6 0 10 -2 10 -4z m27
-112 c-9 -9 -28 6 -21 18 4 6 10 6 17 -1 6 -6 8 -13 4 -17z m-892 6 c3 -5 2
-10 -4 -10 -5 0 -13 5 -16 10 -3 6 -2 10 4 10 5 0 13 -4 16 -10z m-75 -14 c0
-3 -4 -8 -10 -11 -5 -3 -10 -1 -10 4 0 6 5 11 10 11 6 0 10 -2 10 -4z m875
-16 c3 -5 1 -10 -4 -10 -6 0 -11 5 -11 10 0 6 2 10 4 10 3 0 8 -4 11 -10z m75
-120 c0 -5 -4 -10 -10 -10 -5 0 -10 5 -10 10 0 6 5 10 10 10 6 0 10 -4 10 -10z
m-80 -4 c0 -3 -4 -8 -10 -11 -5 -3 -10 -1 -10 4 0 6 5 11 10 11 6 0 10 -2 10
-4z m70 -134 c0 -4 -5 -13 -12 -20 -7 -7 -16 -12 -20 -12 -13 0 -9 28 5 33 19
8 27 8 27 -1z m-840 -36 c0 -3 -4 -8 -10 -11 -5 -3 -10 -1 -10 4 0 6 5 11 10
11 6 0 10 -2 10 -4z m-142 -126 c-13 -20 -28 -27 -28 -12 0 10 22 32 32 32 5
0 3 -9 -4 -20z m42 1 c0 -6 -4 -13 -10 -16 -5 -3 -10 1 -10 9 0 9 5 16 10 16
6 0 10 -4 10 -9z m-30 -175 c0 -8 6 -16 13 -19 7 -2 8 -8 3 -13 -5 -5 -11 -4
-13 4 -3 6 -11 12 -19 12 -8 0 -11 6 -8 15 8 19 24 20 24 1z m250 4 c0 -5 -7
-10 -15 -10 -8 0 -15 5 -15 10 0 6 7 10 15 10 8 0 15 -4 15 -10z m370 -70 c0
-5 -5 -10 -11 -10 -5 0 -7 5 -4 10 3 6 8 10 11 10 2 0 4 -4 4 -10z m-604 -61
c3 -6 1 -16 -5 -22 -9 -9 -14 -8 -21 3 -9 15 -4 30 10 30 5 0 12 -5 16 -11z
m74 -29 c0 -5 -2 -10 -4 -10 -3 0 -8 5 -11 10 -3 6 -1 10 4 10 6 0 11 -4 11
-10z m300 1 c0 -12 -20 -25 -27 -18 -7 7 6 27 18 27 5 0 9 -4 9 -9z m-110 -31
c0 -5 -4 -10 -10 -10 -5 0 -10 5 -10 10 0 6 5 10 10 10 6 0 10 -4 10 -10z
m-110 -49 c0 -5 -7 -14 -15 -21 -16 -14 -18 -10 -9 14 6 17 24 22 24 7z m185
-11 c-3 -5 -10 -10 -16 -10 -5 0 -9 5 -9 10 0 6 7 10 16 10 8 0 12 -4 9 -10z
m350 -30 c3 -5 -1 -10 -10 -10 -9 0 -13 5 -10 10 3 6 8 10 10 10 2 0 7 -4 10
-10z m295 -20 c0 -5 -4 -10 -10 -10 -5 0 -10 5 -10 10 0 6 5 10 10 10 6 0 10
-4 10 -10z m-835 -29 c3 -5 1 -12 -5 -16 -5 -3 -10 1 -10 9 0 18 6 21 15 7z
m-135 -11 c0 -5 -4 -10 -10 -10 -5 0 -10 5 -10 10 0 6 5 10 10 10 6 0 10 -4
10 -10z m223 -154 c-18 -25 -33 -33 -33 -18 0 12 41 54 47 48 3 -2 -3 -16 -14
-30z m767 8 c0 -8 -4 -14 -10 -14 -5 0 -10 9 -10 21 0 11 5 17 10 14 6 -3 10
-13 10 -21z m-190 -44 c0 -17 -15 -11 -28 11 -12 19 -11 19 8 9 11 -6 20 -15
20 -20z m-690 10 c0 -5 -4 -10 -10 -10 -5 0 -10 5 -10 10 0 6 5 10 10 10 6 0
10 -4 10 -10z m75 -69 c-4 -13 0 -23 11 -29 12 -7 15 -15 10 -28 -7 -18 -9
-17 -17 4 -4 12 -13 22 -19 22 -14 0 -13 23 2 38 17 17 20 15 13 -7z m765 -41
c0 -5 -4 -10 -9 -10 -6 0 -13 5 -16 10 -3 6 1 10 9 10 9 0 16 -4 16 -10z m-14
-97 c-10 -10 -19 5 -10 18 6 11 8 11 12 0 2 -7 1 -15 -2 -18z m-676 -3 c0 -5
-7 -10 -16 -10 -8 0 -12 5 -9 10 3 6 10 10 16 10 5 0 9 -4 9 -10z m664 -54
c-6 -16 -24 -23 -24 -8 0 10 22 33 27 28 2 -2 1 -11 -3 -20z m-889 4 c-3 -5
-11 -10 -16 -10 -6 0 -7 5 -4 10 3 6 11 10 16 10 6 0 7 -4 4 -10z m120 0 c3
-5 -1 -10 -9 -10 -8 0 -18 5 -21 10 -3 6 1 10 9 10 8 0 18 -4 21 -10z m719
-39 c-6 -6 -24 19 -24 34 1 6 7 1 15 -9 8 -11 12 -22 9 -25z m-54 -61 c0 -5
-5 -10 -11 -10 -5 0 -7 5 -4 10 3 6 8 10 11 10 2 0 4 -4 4 -10z m40 6 c0 -3
-4 -8 -10 -11 -5 -3 -10 -1 -10 4 0 6 5 11 10 11 6 0 10 -2 10 -4z m57 -33
c-9 -9 -20 -14 -24 -10 -3 4 2 14 13 21 25 19 33 10 11 -11z m-729 -61 c2 -7
-2 -10 -12 -6 -9 3 -16 11 -16 16 0 13 23 5 28 -10z m752 -66 c0 -15 -18 -31
-26 -23 -7 7 7 37 17 37 5 0 9 -6 9 -14z"/>
<path d="M6292 6174 c-12 -9 -11 -19 6 -75 11 -35 54 -224 96 -419 42 -195 88
-404 101 -465 14 -60 41 -186 60 -280 38 -179 90 -422 131 -615 14 -63 27
-131 31 -150 9 -59 15 -60 248 -60 154 0 215 3 227 13 10 7 28 67 47 157 17
80 45 201 61 270 28 118 99 432 140 620 32 149 129 589 165 750 19 85 41 175
49 199 9 24 13 47 10 52 -3 5 -95 9 -205 9 -152 0 -199 -3 -201 -12 0 -7 -2
-24 -3 -38 -2 -31 -46 -267 -135 -720 -37 -190 -83 -426 -101 -525 -18 -99
-34 -182 -36 -184 -10 -13 -20 30 -58 244 -8 44 -30 163 -50 265 -42 217 -48
248 -114 612 -28 153 -51 290 -51 305 0 16 -4 33 -8 40 -10 15 -389 23 -410 7z
m1218 -198 c0 -8 -4 -18 -10 -21 -5 -3 -10 3 -10 14 0 12 5 21 10 21 6 0 10
-6 10 -14z m-70 -76 c0 -5 -2 -10 -4 -10 -3 0 -8 5 -11 10 -3 6 -1 10 4 10 6
0 11 -4 11 -10z m-20 -124 c0 -3 -4 -8 -10 -11 -5 -3 -10 -1 -10 4 0 6 5 11
10 11 6 0 10 -2 10 -4z m-693 -118 c-3 -8 -6 -5 -6 6 -1 11 2 17 5 13 3 -3 4
-12 1 -19z m723 12 c0 -5 -4 -10 -10 -10 -5 0 -10 5 -10 10 0 6 5 10 10 10 6
0 10 -4 10 -10z m-110 -175 c0 -8 -4 -15 -10 -15 -5 0 -10 7 -10 15 0 8 5 15
10 15 6 0 10 -7 10 -15z m-406 -890 c-4 -8 -8 -15 -10 -15 -2 0 -4 7 -4 15 0
8 4 15 10 15 5 0 7 -7 4 -15z m291 -65 c3 -5 1 -10 -4 -10 -6 0 -11 5 -11 10
0 6 2 10 4 10 3 0 8 -4 11 -10z m-285 -110 c0 -5 -2 -10 -4 -10 -3 0 -8 5 -11
10 -3 6 -1 10 4 10 6 0 11 -4 11 -10z m254 -14 c-6 -15 -24 -23 -24 -11 0 8
24 34 28 30 1 -1 0 -10 -4 -19z m-8 -233 c-10 -10 -19 5 -10 18 6 11 8 11 12
0 2 -7 1 -15 -2 -18z"/>
<path d="M8087 6182 c-17 -3 -21 -14 -31 -82 -3 -19 -33 -163 -67 -320 -33
-157 -78 -368 -99 -470 -21 -102 -61 -291 -90 -420 -28 -129 -71 -327 -96
-440 -24 -113 -51 -229 -60 -259 -8 -29 -13 -59 -10 -67 4 -10 46 -12 198 -11
l193 2 3 40 c3 36 25 167 52 300 l10 50 210 3 210 2 5 -23 c15 -71 55 -298 57
-332 l3 -40 194 -3 c107 -1 198 1 203 6 5 5 0 44 -11 88 -11 43 -29 126 -41
184 -22 110 -114 554 -150 725 -72 336 -194 949 -199 997 -4 31 -9 59 -12 62
-5 6 -447 13 -472 8z m393 -248 c0 -8 -4 -12 -10 -9 -5 3 -10 10 -10 16 0 5 5
9 10 9 6 0 10 -7 10 -16z m-144 -21 c-7 -7 -26 7 -26 19 0 6 6 6 15 -2 9 -7
13 -15 11 -17z m71 -19 c-8 -8 -37 21 -37 38 0 7 9 4 22 -9 12 -13 19 -25 15
-29z m-192 6 c3 -5 1 -10 -4 -10 -6 0 -11 5 -11 10 0 6 2 10 4 10 3 0 8 -4 11
-10z m-40 -119 c3 -5 1 -12 -5 -16 -5 -3 -10 1 -10 9 0 18 6 21 15 7z m5 -113
c0 -16 -3 -19 -11 -11 -6 6 -8 16 -5 22 11 17 16 13 16 -11z m140 -70 c0 -13
9 -72 20 -133 11 -60 27 -150 36 -200 9 -49 26 -146 39 -215 13 -69 26 -145
30 -170 l7 -45 -144 3 c-79 2 -144 5 -146 7 -3 2 50 298 107 602 17 89 31 164
31 167 0 3 5 6 10 6 6 0 10 -10 10 -22z m-310 -152 c0 -3 -4 -8 -10 -11 -5 -3
-10 -1 -10 4 0 6 5 11 10 11 6 0 10 -2 10 -4z m683 -569 c-3 -5 -10 -4 -15 1
-6 6 -7 16 -3 22 6 9 9 9 16 -1 4 -7 5 -17 2 -22z m-28 -117 c-3 -5 -11 -10
-16 -10 -6 0 -7 5 -4 10 3 6 11 10 16 10 6 0 7 -4 4 -10z m-240 -30 c3 -5 -1
-10 -9 -10 -9 0 -16 5 -16 10 0 6 4 10 9 10 6 0 13 -4 16 -10z m-45 -10 c0 -5
-4 -10 -10 -10 -5 0 -10 5 -10 10 0 6 5 10 10 10 6 0 10 -4 10 -10z m430 -500
c0 -5 -7 -7 -15 -4 -8 4 -15 8 -15 10 0 2 7 4 15 4 8 0 15 -4 15 -10z"/>
<path d="M9183 6171 c-9 -8 -11 -20 -6 -30 9 -18 11 -988 3 -1601 -3 -229 -1
-410 4 -417 12 -18 351 -18 362 -1 5 7 7 71 5 143 -5 297 -6 1025 0 1025 4 0
14 -21 24 -47 15 -41 262 -687 388 -1018 l43 -110 186 -3 c214 -3 222 0 208
65 -11 47 -1 1906 10 1949 14 56 9 57 -190 56 -101 -1 -187 -5 -191 -9 -5 -5
-5 -35 0 -68 10 -68 13 -1121 3 -1111 -3 4 -34 84 -68 179 -50 138 -167 448
-278 737 -8 19 -33 85 -56 145 -23 61 -45 113 -48 117 -4 4 -92 8 -196 10
-151 2 -192 0 -203 -11z m165 -140 c-14 -5 -31 15 -23 29 5 8 11 6 20 -7 9
-11 10 -19 3 -22z m132 -102 c0 -5 -7 -9 -15 -9 -15 0 -20 12 -9 23 8 8 24 -1
24 -14z m706 -47 c-12 -12 -18 8 -10 35 l8 28 4 -28 c2 -16 1 -31 -2 -35z
m-791 10 c-6 -7 -35 18 -35 31 0 5 9 2 20 -8 11 -10 18 -20 15 -23z m901 11
c-10 -10 -19 5 -10 18 6 11 8 11 12 0 2 -7 1 -15 -2 -18z m-716 13 c0 -3 -4
-8 -10 -11 -5 -3 -10 -1 -10 4 0 6 5 11 10 11 6 0 10 -2 10 -4z m0 -46 c0 -5
-2 -10 -4 -10 -3 0 -8 5 -11 10 -3 6 -1 10 4 10 6 0 11 -4 11 -10z m-140 -46
c0 -8 -5 -12 -10 -9 -6 4 -8 11 -5 16 9 14 15 11 15 -7z m98 -55 c-2 -6 -8
-10 -13 -10 -5 0 -11 4 -13 10 -2 6 4 11 13 11 9 0 15 -5 13 -11z m-63 -79 c3
-5 2 -10 -4 -10 -5 0 -13 5 -16 10 -3 6 -2 10 4 10 5 0 13 -4 16 -10z m725 0
c0 -5 -4 -10 -10 -10 -5 0 -10 5 -10 10 0 6 5 10 10 10 6 0 10 -4 10 -10z
m-855 -10 c-3 -5 -10 -10 -16 -10 -5 0 -9 5 -9 10 0 6 7 10 16 10 8 0 12 -4 9
-10z m965 -60 c0 -5 -4 -10 -10 -10 -5 0 -10 5 -10 10 0 6 5 10 10 10 6 0 10
-4 10 -10z m-655 -121 c11 -17 -1 -21 -15 -4 -8 9 -8 15 -2 15 6 0 14 -5 17
-11z m-199 -56 c-4 -4 -11 -1 -16 7 -16 25 -11 35 7 17 9 -9 13 -20 9 -24z
m809 -43 c3 -5 -1 -10 -10 -10 -9 0 -13 5 -10 10 3 6 8 10 10 10 2 0 7 -4 10
-10z m-915 -10 c0 -5 -4 -10 -10 -10 -5 0 -10 -7 -10 -15 0 -8 -4 -15 -10 -15
-13 0 -13 6 0 31 11 20 30 26 30 9z m305 -10 c3 -5 1 -10 -4 -10 -6 0 -11 5
-11 10 0 6 2 10 4 10 3 0 8 -4 11 -10z m-325 -80 c0 -5 -7 -10 -16 -10 -8 0
-12 5 -9 10 3 6 10 10 16 10 5 0 9 -4 9 -10z m-84 -16 c-3 -9 -6 -18 -6 -20 0
-2 -7 -4 -15 -4 -13 0 -14 4 -5 20 13 24 35 27 26 4z m1094 -9 c0 -16 -6 -25
-15 -25 -28 0 -18 40 13 49 1 1 2 -10 2 -24z m-592 -42 c6 -19 -25 -16 -32 3
-4 11 -1 14 11 12 9 -2 18 -9 21 -15z m-398 -3 c0 -5 -4 -10 -10 -10 -5 0 -10
5 -10 10 0 6 5 10 10 10 6 0 10 -4 10 -10z m50 -40 c0 -5 -7 -7 -15 -4 -8 4
-12 10 -9 15 6 11 24 2 24 -11z m370 10 c0 -5 -2 -10 -4 -10 -3 0 -8 5 -11 10
-3 6 -1 10 4 10 6 0 11 -4 11 -10z m-520 -28 c0 -24 -8 -32 -26 -25 -10 4 -11
10 -3 24 12 24 29 25 29 1z m40 -22 c0 -5 -2 -10 -4 -10 -3 0 -8 5 -11 10 -3
6 -1 10 4 10 6 0 11 -4 11 -10z m70 -156 c0 -8 -5 -12 -10 -9 -6 4 -8 11 -5
16 9 14 15 11 15 -7z m920 -174 c0 -5 -5 -10 -11 -10 -5 0 -7 5 -4 10 3 6 8
10 11 10 2 0 4 -4 4 -10z m-52 -59 c3 -8 -1 -12 -9 -9 -7 2 -15 10 -17 17 -3
8 1 12 9 9 7 -2 15 -10 17 -17z m92 -41 c0 -5 -4 -10 -9 -10 -6 0 -13 5 -16
10 -3 6 1 10 9 10 9 0 16 -4 16 -10z m12 -45 c0 -5 -5 -11 -11 -13 -6 -2 -11
4 -11 13 0 9 5 15 11 13 6 -2 11 -8 11 -13z m-102 -47 c0 -7 -5 -20 -10 -28
-8 -12 -10 -9 -10 13 0 15 5 27 10 27 6 0 10 -6 10 -12z m-790 -228 c0 -5 -5
-10 -11 -10 -5 0 -7 5 -4 10 3 6 8 10 11 10 2 0 4 -4 4 -10z m90 -111 c0 -5
-4 -9 -10 -9 -5 0 -10 7 -10 16 0 8 5 12 10 9 6 -3 10 -10 10 -16z m-90 -45
c0 -8 -4 -12 -10 -9 -5 3 -10 10 -10 16 0 5 5 9 10 9 6 0 10 -7 10 -16z"/>
</g>
</svg>
